<svg width="86" height="25" viewBox="0 0 86 25" fill="none" xmlns="http://www.w3.org/2000/svg">
<path fill-rule="evenodd" clip-rule="evenodd" d="M18.522 16.5422C18.1031 13.6794 16.1437 10.4215 13.3769 9.24854C14.1865 10.1084 15.4078 12.3752 15.6758 13.6929C15.7206 13.9127 15.7326 14.2943 15.8554 14.4759C15.9336 14.2646 16.0405 14.1581 16.1473 13.9066C16.2228 13.7283 16.2691 13.5472 16.3377 13.3619C16.5665 13.7459 16.8874 14.842 16.9835 15.3831C15.6035 15.5669 13.7164 16.1876 12.5034 16.6639C10.4828 17.4573 7.8742 18.9981 6.42127 20.5738C6.28721 20.719 6.21581 20.8121 6.09222 20.9651C5.36541 21.865 3.90922 23.7677 3.85156 24.9999C3.97118 24.7233 5.3038 23.076 5.56307 22.7858C6.17213 22.1039 6.80843 21.3379 7.54841 20.827C7.41749 21.3051 7.21226 21.8935 7.30253 22.454L7.7682 21.859C9.9427 18.9201 14.9785 16.9037 18.522 16.5422Z" fill="white"/>
<path fill-rule="evenodd" clip-rule="evenodd" d="M11.6544 12.7703L12.0345 11.9449C12.039 11.9344 12.0478 11.9135 12.0573 11.8995C12.2566 12.1471 12.647 12.6403 12.7621 13.0751C12.567 13.2156 11.7358 13.4933 11.4266 13.6271C8.70604 14.8051 5.91735 16.8351 4.59103 19.5269C4.48958 19.7326 4.39558 20.0221 4.29297 20.1864L5.01303 19.4274C5.55383 18.8547 5.93308 18.3886 6.53596 17.8827C6.81702 17.6467 7.06628 17.378 7.393 17.1802C7.19464 17.6964 6.82669 18.3716 6.90671 19.0551C7.03169 18.9096 7.10693 18.7629 7.21199 18.6216C7.34489 18.4433 7.44984 18.3311 7.56096 18.1897L8.30874 17.3046C8.75088 16.8517 9.41829 16.0945 9.93324 15.7281C10.6393 15.2256 10.9225 14.9391 11.841 14.4356C12.3963 14.1311 13.4003 13.6309 14.0977 13.4999C13.7553 12.5102 11.6584 10.4282 10.7211 10.0791C11.067 10.9177 11.6216 11.3694 11.6544 12.7703Z" fill="white"/>
<path fill-rule="evenodd" clip-rule="evenodd" d="M20.1705 10.2915C20.3066 9.43928 20.2234 8.42698 19.7954 7.67908C19.6338 7.39662 19.4919 7.28108 19.3626 7.06991C19.65 7.12954 20.1893 7.42457 20.3065 7.55118C20.2882 7.10589 19.813 6.57698 19.5873 6.32108C19.1293 5.80194 18.9564 5.82547 18.3703 5.44308L19.2546 5.47987C18.8915 4.99137 17.2972 4.43439 16.4327 4.24977C15.2078 3.98793 13.9081 3.87204 12.6016 3.90279C12.7866 4.07354 13.4884 4.30708 13.8157 4.44871C14.9704 4.94887 16.2176 5.65833 17.1669 6.38654C18.2177 7.19244 19.7054 8.61124 20.1705 10.2915Z" fill="white"/>
<path fill-rule="evenodd" clip-rule="evenodd" d="M12.6142 20.7222C12.6143 20.709 12.645 20.7451 12.6364 20.7551C12.6276 20.7651 12.6163 20.7253 12.6143 20.7221L12.6142 20.7222ZM12.4047 22.3923C12.8297 21.8645 13.0564 21.5043 13.5308 21.0891C14.6708 20.0918 16.1802 19.4558 17.6964 19.113L18.6793 18.8533C16.5363 18.4554 14.3785 18.58 12.5488 19.4542C11.2504 20.0743 9.46901 21.7135 9.12109 23.1253C9.76521 22.4782 11.6181 20.8472 12.5822 20.7213C12.5535 21.2542 12.4049 21.7422 12.4047 22.3923Z" fill="white"/>
<path fill-rule="evenodd" clip-rule="evenodd" d="M19.3776 12.0415C19.3822 12.0355 19.391 12.0524 19.391 12.0599C19.391 12.063 19.3966 12.0678 19.3964 12.0675C19.3954 12.066 19.2892 12.1585 19.3776 12.0415ZM19.7805 16.0828C20.0082 15.5908 19.9709 14.5571 19.9045 13.9678C19.8107 13.1353 19.5929 12.7737 19.4166 12.0975C19.723 12.2548 20.1349 12.6652 20.3156 12.9851C20.3107 12.0122 19.5016 11.0637 18.9809 10.407C19.3103 10.4409 19.6345 10.5516 19.8203 10.7122L19.8882 10.6555C19.9502 10.5658 18.9136 9.52472 18.8234 9.43584C17.8133 8.44079 15.4608 7.31446 14.0859 7.28418C17.1841 9.18461 19.3489 12.2647 19.7805 16.0828Z" fill="white"/>
<path fill-rule="evenodd" clip-rule="evenodd" d="M1.54331 16.3207C2.12395 15.9585 2.53115 15.6851 3.28848 15.3537C3.92619 15.0748 4.62552 14.8284 5.36794 14.6746C4.71148 14.5855 3.58165 14.8023 2.91121 14.9747L2.20199 15.1134C2.19104 15.1117 2.16832 15.1064 2.1526 15.0997C1.90928 14.2689 2.0727 13.4864 2.16704 12.6602C2.61618 12.6239 3.07452 12.5582 3.53926 12.5258L4.93779 12.487C5.09026 11.7877 4.98927 10.6162 4.36845 10.2287C4.40141 10.7808 4.70344 11.4828 4.50624 12.0648L1.82566 12.359C1.68018 11.9242 1.10955 11.1111 1.19318 10.6492C1.33249 9.87992 1.96053 9.9222 2.15889 9.16545C1.91277 9.20272 1.77498 9.34064 1.53434 9.41867C1.22649 9.5185 0.978167 9.46269 0.649471 9.4394C1.01451 8.74799 2.24508 8.00825 3.0179 7.63553C3.49383 7.40607 3.59983 7.47083 3.82812 7.01215C4.43811 5.78716 5.30667 4.56451 6.28367 3.96582C4.35727 4.78943 3.74192 6.87424 3.17666 7.21016C2.10333 7.84775 0.991917 8.42932 0.174601 9.36591C-0.140002 9.7264 0.026899 10.0412 0.234693 10.3235C0.686273 10.9366 1.02545 10.9184 1.31501 11.8549C1.72385 13.1764 1.89077 12.5302 1.7864 13.992C1.73562 14.7039 1.5347 15.6722 1.54331 16.3207Z" fill="white"/>
<path fill-rule="evenodd" clip-rule="evenodd" d="M9.01562 2.36288C9.70249 2.10617 10.2502 1.77409 11.2307 1.61242C12.9877 1.32286 14.4369 1.75452 15.8112 2.71266C16.1828 2.9717 17.1208 3.79892 17.3203 4.09955C17.3021 2.8105 15.9079 1.03319 14.0514 0.744675L14.25 0.579162C14.4909 0.430539 14.7189 0.430189 14.94 0.267588C12.8 -0.277987 10.7617 0.622606 9.25522 2.05317C9.0713 2.22788 9.11638 2.18957 9.01562 2.36288Z" fill="white"/>
<path fill-rule="evenodd" clip-rule="evenodd" d="M8.39062 4.14297C9.21481 3.62815 10.2354 2.94105 11.2805 2.6968C11.1475 3.25612 10.6133 4.36824 10.2581 4.88249C10.1527 5.0353 10.1485 5.01584 10.0707 5.1866C12.2479 5.28164 11.8764 4.20797 11.7153 2.28809C10.9086 2.35343 9.69214 3.02037 9.01809 3.44901C8.67669 3.66612 8.5177 3.71818 8.39062 4.14297Z" fill="white"/>
<path fill-rule="evenodd" clip-rule="evenodd" d="M7.12174 2.84185L7.84692 1.88628C8.71444 0.896928 9.98881 0.529091 11.1067 0.108727C9.56332 -0.240236 8.92235 0.332016 8.10841 0.682493L8.28021 0.0398935C7.38812 0.414831 7.05407 1.57214 7.12174 2.84185Z" fill="white"/>
<path fill-rule="evenodd" clip-rule="evenodd" d="M10.0876 7.84405L10.4264 7.2817L11.7609 9.46622C11.7047 9.18819 10.6311 6.28302 10.4789 6.09584C10.3326 6.31762 10.273 6.58505 10.0772 6.73426L9.25 5.88525C9.32664 6.26287 9.89377 7.61809 10.0876 7.84405Z" fill="white"/>
<path fill-rule="evenodd" clip-rule="evenodd" d="M8.23047 11.3881C8.49021 11.3044 8.61332 11.1663 8.85234 11.0591L8.91431 13.5935L9.50845 10.05C9.20177 10.1844 9.13095 10.306 8.81006 10.4204L8.49918 9.22852L8.23047 11.3881Z" fill="white"/>
<path fill-rule="evenodd" clip-rule="evenodd" d="M6.04803 14.1211L6.69145 14.1346L5.56641 16.1669C5.59949 16.1737 5.58329 16.1513 5.63839 16.0737C5.64421 16.0655 5.65796 16.0437 5.66541 16.0338L7.7176 13.6758L7.005 13.6563L7.33405 12.5396C7.17867 12.6615 6.16276 13.896 6.04803 14.1211Z" fill="white"/>
<path fill-rule="evenodd" clip-rule="evenodd" d="M8.48438 4.51825C8.68006 4.91998 9.03076 5.11379 9.5902 5.11472C9.80882 4.61236 10.3006 3.96987 10.4789 3.42383C10.0229 3.52586 9.11392 4.04151 8.71231 4.31628L8.48438 4.51825Z" fill="white"/>
<path fill-rule="evenodd" clip-rule="evenodd" d="M6.20259 7.43011L6.20237 7.10816L6.631 7.16629L6.20259 7.43011ZM5.36315 7.25831L5.78281 7.15406L5.80739 7.74902C5.48755 7.9058 5.23433 8.21446 5.13672 8.56925C5.59401 8.08401 5.951 7.7199 6.64474 7.47402C7.04693 7.33156 6.97589 7.41135 7.22398 7.13099C6.94595 6.90293 6.45361 6.81675 6.00575 6.82094L6.06784 6.01025C5.6943 6.18555 5.40555 6.84563 5.36315 7.25831Z" fill="white"/>
<path fill-rule="evenodd" clip-rule="evenodd" d="M2.35553 9.11594C2.59104 9.12432 2.65324 8.97733 2.80676 8.86551L4.08997 7.78857C3.82627 7.92101 3.39764 8.21616 3.14291 8.41428C2.72837 8.73692 2.35005 8.86633 2.35553 9.11594Z" fill="white"/>
<path fill-rule="evenodd" clip-rule="evenodd" d="M6.63176 7.16604L6.20312 7.10791L6.20335 7.42987L6.63176 7.16604Z" fill="white"/>
<path d="M26.2812 11.5378V6.17054H28.4208C29.0393 6.17054 29.528 6.34188 29.8873 6.68432C30.2462 7.02676 30.4258 7.47915 30.4258 8.04139C30.4258 8.6395 30.2263 9.10342 29.8273 9.43304C29.4283 9.76279 28.9221 9.9276 28.3086 9.9276H27.4333V11.5378H26.2812ZM27.4333 8.87722H28.346C28.6304 8.87722 28.8535 8.80046 29.0157 8.64718C29.1777 8.49378 29.2588 8.29449 29.2588 8.04908C29.2588 7.7884 29.1765 7.58783 29.0119 7.44724C28.8474 7.30666 28.6179 7.2363 28.3237 7.2363H27.4333V8.87722ZM53.6924 11.5761L51.9044 6.17054H53.1387L54.2235 9.80496L55.3981 6.15527H56.3856L57.5601 9.80496L58.6449 6.17054H59.8493L58.0613 11.5761H57.0588L55.8769 8.06444L54.6949 11.5761H53.6924Z" fill="#E31E24" stroke="#E31E24" stroke-width="0.0762" stroke-miterlimit="22.9256"/>
<path d="M31.2773 11.5377V6.17041H33.6714C34.3346 6.17041 34.8434 6.35188 35.1975 6.71482C35.4968 7.02151 35.6464 7.43558 35.6464 7.95693C35.6464 8.77995 35.2724 9.33449 34.5242 9.62079L35.8034 11.5377H34.4568L33.3198 9.8202H32.4294V11.5377H31.2773ZM32.4294 8.77739H33.5965C33.8758 8.77739 34.0928 8.70704 34.2474 8.56656C34.4021 8.42598 34.4793 8.2381 34.4793 8.00294C34.4793 7.75251 34.3995 7.56207 34.2398 7.43174C34.0802 7.3014 33.8583 7.23617 33.5741 7.23617H32.4294V8.77739ZM36.7386 11.5377V6.17041H37.8908V11.5377H36.7386ZM39.2 11.5377V6.17041H41.2424C42.0603 6.17041 42.7285 6.4248 43.2472 6.93333C43.7661 7.44199 44.0254 8.08226 44.0254 8.85404C44.0254 9.6208 43.7648 10.2598 43.2436 10.7709C42.7224 11.2821 42.0553 11.5377 41.2424 11.5377H39.2ZM40.352 10.4719H41.2424C41.7162 10.4719 42.0977 10.3223 42.3869 10.0233C42.6762 9.72435 42.8209 9.3345 42.8209 8.85404C42.8209 8.3787 42.675 7.99024 42.3831 7.68856C42.0914 7.38701 41.7112 7.23617 41.2424 7.23617H40.352V10.4719ZM45.0502 11.5377V6.17041H49.0003V7.22091H46.1948V8.30962H48.6636V9.36012H46.1948V10.4873H49.0377V11.5377H45.0502ZM60.701 11.5377V6.17041H64.651V7.22091H61.8454V8.30962H64.3143V9.36012H61.8454V10.4873H64.6884V11.5377H60.701ZM65.7134 11.5377V6.17041H68.1447C68.7482 6.17041 69.2046 6.32894 69.5138 6.64587C69.7532 6.89117 69.8729 7.20041 69.8729 7.5736C69.8729 8.07969 69.6434 8.46558 69.1846 8.73138C69.5088 8.85916 69.7532 9.02654 69.9177 9.23363C70.0823 9.44061 70.1646 9.71794 70.1646 10.0655C70.1646 10.546 69.9901 10.9115 69.6409 11.1619C69.2918 11.4124 68.813 11.5377 68.2045 11.5377H65.7134ZM66.8355 8.34037H67.8978C68.4515 8.34037 68.7282 8.14608 68.7282 7.75763C68.7282 7.57872 68.6634 7.44198 68.5338 7.3474C68.4041 7.25283 68.2171 7.20554 67.9727 7.20554H66.8355V8.34037ZM66.8355 10.5025H68.2045C68.7482 10.5025 69.0201 10.3032 69.0201 9.90453C69.0201 9.51597 68.7357 9.3218 68.1671 9.3218H66.8355V10.5025Z" fill="white"/>
<path d="M26.0586 18.6995V13.3882H28.13C28.9596 13.3882 29.6375 13.6398 30.1635 14.1432C30.6896 14.6465 30.9526 15.28 30.9526 16.0438C30.9526 16.8026 30.6883 17.4349 30.1597 17.9408C29.6312 18.4466 28.9546 18.6995 28.13 18.6995H26.0586ZM27.2271 17.6448H28.13C28.6106 17.6448 28.9975 17.4969 29.2909 17.2009C29.5843 16.9051 29.731 16.5193 29.731 16.0438C29.731 15.5734 29.5831 15.189 29.2871 14.8905C28.9912 14.5921 28.6055 14.4429 28.13 14.4429H27.2271V17.6448Z" fill="#E31E24" stroke="#E31E24" stroke-width="0.0762" stroke-miterlimit="22.9256"/>
<path d="M31.9922 18.6993V13.388H35.9985V14.4274H33.1531V15.5049H35.657V16.5444H33.1531V17.6597H36.0364V18.6993H31.9922ZM38.768 18.7373L36.6206 13.388H37.9106L39.2991 17.1286L40.6876 13.388H41.9472L39.7998 18.7373H38.768ZM42.7666 18.6993V13.388H46.773V14.4274H43.9275V15.5049H46.4314V16.5444H43.9275V17.6597H46.8108V18.6993H42.7666ZM47.8504 18.6993V13.388H49.0189V17.637H51.6669V18.6993H47.8504ZM56.8455 17.9898C56.3068 18.5235 55.6327 18.7904 54.8235 18.7904C54.0141 18.7904 53.3426 18.5248 52.8089 17.9937C52.2752 17.4625 52.0085 16.8125 52.0085 16.0436C52.0085 15.2798 52.2778 14.631 52.8165 14.0974C53.3552 13.5637 54.0292 13.2969 54.8386 13.2969C55.648 13.2969 56.3195 13.5624 56.8531 14.0936C57.3868 14.6247 57.6536 15.2748 57.6536 16.0436C57.6536 16.8075 57.3842 17.4561 56.8455 17.9898ZM53.6853 17.2273C53.9888 17.5511 54.3732 17.7129 54.8386 17.7129C55.3039 17.7129 55.6859 17.5523 55.9844 17.2311C56.2828 16.9099 56.432 16.5141 56.432 16.0436C56.432 15.5783 56.2802 15.1837 55.9767 14.86C55.6733 14.5362 55.2888 14.3743 54.8235 14.3743C54.358 14.3743 53.9761 14.5349 53.6777 14.8561C53.3793 15.1774 53.2301 15.5732 53.2301 16.0436C53.2301 16.509 53.3817 16.9036 53.6853 17.2273ZM58.6932 18.6993V13.388H60.8632C61.4905 13.388 61.9862 13.5574 62.3504 13.8963C62.7146 14.2352 62.8967 14.6829 62.8967 15.2393C62.8967 15.8312 62.6944 16.2902 62.2897 16.6165C61.8851 16.9427 61.3715 17.1059 60.7494 17.1059H59.8617V18.6993H58.6932ZM59.8617 16.0663H60.7873C61.0757 16.0663 61.302 15.9905 61.4665 15.8387C61.6308 15.687 61.713 15.4898 61.713 15.2469C61.713 14.9889 61.6295 14.7903 61.4626 14.6513C61.2957 14.5122 61.063 14.4427 60.7646 14.4427H59.8617V16.0663ZM63.7618 18.6993V13.388H65.0213L66.4174 15.6339L67.8135 13.388H69.0731V18.6993H67.9122V15.2318L66.4174 17.5004H66.387L64.9075 15.2545V18.6993H63.7618ZM70.3478 18.6993V13.388H74.3541V14.4274H71.5087V15.5049H74.0126V16.5444H71.5087V17.6597H74.392V18.6993H70.3478ZM75.4315 18.6993V13.388H76.5089L78.9977 16.6583V13.388H80.1511V18.6993H79.157L76.5849 15.3227V18.6993H75.4315ZM82.6625 18.6993V14.4654H81.0464V13.388H85.4472V14.4654H83.831V18.6993H82.6625Z" fill="white"/>
</svg>
