<svg width="26" height="26" viewBox="0 0 26 26" fill="none" xmlns="http://www.w3.org/2000/svg">
<path d="M20.5833 22.75V5.41667C20.5833 4.84203 20.3551 4.29093 19.9487 3.8846C19.5424 3.47827 18.9913 3.25 18.4167 3.25H7.58333C7.0087 3.25 6.4576 3.47827 6.05127 3.8846C5.64494 4.29093 5.41667 4.84203 5.41667 5.41667V22.75M20.5833 22.75H22.75M20.5833 22.75H15.1667M5.41667 22.75H3.25M5.41667 22.75H10.8333M9.75 7.58333H10.8333M9.75 11.9167H10.8333M15.1667 7.58333H16.25M15.1667 11.9167H16.25M10.8333 22.75V17.3333C10.8333 17.046 10.9475 16.7705 11.1506 16.5673C11.3538 16.3641 11.6293 16.25 11.9167 16.25H14.0833C14.3707 16.25 14.6462 16.3641 14.8494 16.5673C15.0525 16.7705 15.1667 17.046 15.1667 17.3333V22.75M10.8333 22.75H15.1667" stroke="#747894" stroke-width="2" stroke-linecap="round" stroke-linejoin="round"/>
</svg>
