<svg width="26" height="26" viewBox="0 0 26 26" fill="none" xmlns="http://www.w3.org/2000/svg">
<path d="M16.1403 12.813C15.7396 12.5557 15.3046 12.356 14.8482 12.2199C14.5682 12.1349 14.2581 12.0519 13.9381 11.9729C13.6581 11.8949 13.326 11.8149 12.916 11.7249C12.4267 11.6223 11.9464 11.4805 11.4798 11.3008C11.2394 11.2074 11.0271 11.0534 10.8638 10.8538C10.7442 10.6904 10.6874 10.4895 10.7037 10.2877C10.7034 10.0714 10.7756 9.86112 10.9088 9.69064C11.0952 9.47227 11.3371 9.30817 11.6088 9.21558C12.066 9.0585 12.5478 8.98531 13.031 8.99956C13.4049 8.99336 13.7776 9.04257 14.1371 9.14558C14.3755 9.21265 14.6001 9.32171 14.8002 9.46761C14.9296 9.55997 15.04 9.67645 15.1252 9.81065C15.187 9.92719 15.2712 10.0304 15.373 10.1143C15.4747 10.1981 15.5921 10.261 15.7183 10.2994C15.8445 10.3377 15.9771 10.3507 16.1083 10.3376C16.2395 10.3245 16.3669 10.2856 16.483 10.223C16.5992 10.1605 16.7018 10.0756 16.785 9.97331C16.8682 9.87097 16.9303 9.75318 16.9678 9.62673C17.0053 9.50028 17.0174 9.36766 17.0035 9.23651C16.9895 9.10536 16.9497 8.97826 16.8864 8.86255C16.6755 8.48952 16.3907 8.16349 16.0493 7.90444C15.655 7.60148 15.2076 7.37459 14.7302 7.23537C14.179 7.07254 13.6067 6.99299 13.032 6.99934C12.3015 6.98362 11.5744 7.10227 10.8868 7.34938C10.2649 7.57575 9.71868 7.97132 9.3096 8.49151C8.91778 9.00874 8.70566 9.63982 8.70553 10.2887C8.6893 10.9347 8.89393 11.5669 9.28559 12.0809C9.66372 12.5571 10.1594 12.9266 10.7238 13.153C11.1502 13.3171 11.5868 13.4534 12.0309 13.5611C12.0389 13.5641 12.0449 13.5711 12.0529 13.5731C12.2449 13.6311 12.551 13.7081 12.993 13.8031C13.166 13.8411 13.328 13.8821 13.4901 13.9231C13.5061 13.9271 13.5291 13.9321 13.5441 13.9371L13.5621 13.9391C13.8101 14.0031 14.0491 14.0681 14.2681 14.1351C14.5372 14.2139 14.794 14.3297 15.0312 14.4792C15.1791 14.5721 15.3034 14.6981 15.3943 14.8472C15.4822 15.0292 15.5228 15.2304 15.5123 15.4323C15.5261 15.6935 15.4506 15.9517 15.2983 16.1643C15.0924 16.4322 14.814 16.6352 14.4962 16.7494C14.0224 16.9323 13.5166 17.018 13.009 17.0014C12.422 17.024 11.8381 16.906 11.3058 16.6574C11.06 16.5265 10.8488 16.339 10.6897 16.1103C10.5781 15.964 10.5083 15.7902 10.4877 15.6073C10.4877 15.342 10.3824 15.0877 10.1948 14.9001C10.0072 14.7125 9.75286 14.6072 9.48761 14.6072C9.22237 14.6072 8.96799 14.7125 8.78043 14.9001C8.59287 15.0877 8.4875 15.342 8.4875 15.6073C8.50399 16.1974 8.69775 16.769 9.04357 17.2475C9.38917 17.7452 9.84953 18.1524 10.3857 18.4346C11.2015 18.8326 12.1016 19.0272 13.009 19.0017C13.7801 19.0203 14.5469 18.8825 15.2632 18.5966C15.9291 18.3411 16.5073 17.8991 16.9284 17.3235C17.3288 16.7627 17.534 16.086 17.5125 15.3973C17.5218 14.8634 17.3926 14.3362 17.1375 13.8671C16.8911 13.4436 16.5497 13.0831 16.1403 12.814V12.813ZM23.3621 14.6912C23.6318 13.0476 23.5063 11.3634 22.9959 9.77794C22.4856 8.19247 21.6052 6.75127 20.4275 5.57354C19.2497 4.3958 17.8085 3.51537 16.2231 3.00506C14.6376 2.49475 12.9534 2.36922 11.3098 2.63886C10.0963 2.05702 8.73208 1.86621 7.40549 2.09277C6.0789 2.31934 4.85535 2.9521 3.90373 3.90373C2.9521 4.85535 2.31934 6.0789 2.09277 7.40549C1.86621 8.73208 2.05702 10.0963 2.63886 11.3098C2.36945 12.9532 2.4951 14.6372 3.00544 16.2224C3.51578 17.8077 4.39614 19.2487 5.57373 20.4263C6.75133 21.6039 8.19232 22.4842 9.77756 22.9946C11.3628 23.5049 13.0468 23.6306 14.6902 23.3611C15.9037 23.943 17.2679 24.1338 18.5945 23.9072C19.9211 23.6807 21.1446 23.0479 22.0963 22.0963C23.0479 21.1446 23.6807 19.9211 23.9072 18.5945C24.1338 17.2679 23.943 15.9037 23.3611 14.6902L23.3621 14.6912ZM17.5005 22.001C16.7416 22.0007 15.9951 21.8087 15.3303 21.4429C15.124 21.3293 14.8843 21.2918 14.6532 21.3369C13.4206 21.5828 12.1488 21.552 10.9296 21.2467C9.7104 20.9415 8.57411 20.3695 7.60273 19.572C6.63134 18.7745 5.84908 17.7713 5.31237 16.6348C4.77566 15.4983 4.49788 14.2568 4.49907 13C4.5001 12.4446 4.55503 11.8906 4.66308 11.3458C4.70833 11.1147 4.6708 10.875 4.55707 10.6687C4.08748 9.81465 3.90785 8.83118 4.0452 7.86623C4.18255 6.90127 4.62946 6.00699 5.31871 5.31784C6.00797 4.62869 6.90233 4.18193 7.86731 4.04474C8.83229 3.90755 9.81572 4.08734 10.6697 4.55707C10.8762 4.67129 11.1164 4.70883 11.3478 4.66308C12.5803 4.41742 13.852 4.44834 15.0711 4.75362C16.2902 5.05891 17.4263 5.63094 18.3976 6.42846C19.3689 7.22599 20.151 8.22912 20.6877 9.36552C21.2243 10.5019 21.5021 11.7433 21.5009 13C21.4999 13.5554 21.445 14.1094 21.3369 14.6542C21.2917 14.8853 21.3292 15.125 21.4429 15.3313C21.8202 16.0164 22.0123 16.7881 22.0004 17.5702C21.9884 18.3523 21.7728 19.1177 21.3748 19.791C20.9768 20.4644 20.4102 21.0223 19.7308 21.4099C19.0514 21.7974 18.2827 22.0011 17.5005 22.001Z" fill="#747894"/>
</svg>
