<svg width="32" height="32" viewBox="0 0 32 32" fill="none" xmlns="http://www.w3.org/2000/svg">
<g clip-path="url(#clip0_173_237)">
<path d="M4 4H6.66667L7.2 6.66667M9.33333 17.3333H22.6667L28 6.66667H7.2M9.33333 17.3333L7.2 6.66667M9.33333 17.3333L6.276 20.3907C5.436 21.2307 6.03067 22.6667 7.21867 22.6667H22.6667M22.6667 22.6667C21.9594 22.6667 21.2811 22.9476 20.7811 23.4477C20.281 23.9478 20 24.6261 20 25.3333C20 26.0406 20.281 26.7189 20.7811 27.219C21.2811 27.719 21.9594 28 22.6667 28C23.3739 28 24.0522 27.719 24.5523 27.219C25.0524 26.7189 25.3333 26.0406 25.3333 25.3333C25.3333 24.6261 25.0524 23.9478 24.5523 23.4477C24.0522 22.9476 23.3739 22.6667 22.6667 22.6667ZM-6.66667 6.66667C-6.66667 7.37391 -6.94762 8.05219 -7.44771 8.55229C-7.94781 9.05238 -8.62609 9.33333 -9.33333 9.33333C-10.0406 9.33333 -10.7189 9.05238 -11.219 8.55229C-11.719 8.05219 -12 7.37391 -12 6.66667C-12 5.95942 -11.719 5.28115 -11.219 4.78105C-10.7189 4.28095 -10.0406 4 -9.33333 4C-8.62609 4 -7.94781 4.28095 -7.44771 4.78105C-6.94762 5.28115 -6.66667 5.95942 -6.66667 6.66667V6.66667Z" stroke="#747894" stroke-width="2" stroke-linecap="round" stroke-linejoin="round"/>
</g>
<defs>
<clipPath id="clip0_173_237">
<rect width="32" height="32" fill="white"/>
</clipPath>
</defs>
</svg>
