<svg width="179" height="49" viewBox="0 0 179 49" fill="none" xmlns="http://www.w3.org/2000/svg">
<path d="M7.078 5.95843H22.8904V0H7.078V5.95843ZM0.371094 32.8361H7.078V5.95886H0.371094V32.8361Z" fill="white"/>
<path d="M43.5841 0.00138855L33.9212 31.3827V0.00138855H27.2129V32.8369H40.2068L49.8694 1.45587V32.8369H56.5774V0.00138855H43.5841Z" fill="white"/>
<path d="M62.1152 0.00138855V32.8369H68.8233V5.95883H83.9743V0.00138855H62.1152Z" fill="white"/>
<path d="M90.5419 0.00138855L79.4717 32.8369H86.2734L88.5718 25.7069H104.005L106.35 32.8369H113.527L102.457 0.00138855H90.5419ZM96.311 1.97199L102.082 19.7498H90.4952L96.311 1.97199Z" fill="white"/>
<path d="M138.153 0.00138855V13.4642H122.955V0.00138855H116.247V32.8369H122.955V19.3748H138.153V32.8369H144.861V0.00138855H138.153Z" fill="white"/>
<path d="M166.435 0H148.522V5.95829H159.691V32.8355H166.401C166.412 21.8904 166.424 10.9453 166.435 0ZM172.1 5.95829H178.371V0H172.1V5.95829ZM172.1 0V5.95829V0Z" fill="white"/>
<path d="M2.05639 45.9386V40.35H0.635742V47.2012H6.33269V48.4444H7.65628V45.9386H6.65726V40.35H5.23647V45.9386H2.05639ZM15.2229 41.8262L15.273 40.0059L9.09597 45.7222L9.04609 47.5426L15.2229 41.8262ZM10.3974 40.35H9.04609V47.5426L10.3974 46.0857V40.35ZM15.273 40.0059L13.9215 41.5043V47.2012H15.273V40.0059ZM19.9315 40.35V47.2012H21.3523V40.35H19.9315ZM23.1726 43.7742C23.1726 44.1018 23.0921 44.3681 22.9284 44.5762C22.7647 44.7843 22.5372 44.9342 22.243 45.0257C21.9489 45.1174 21.602 45.1644 21.2052 45.1644H20.0897C19.6929 45.1644 19.346 45.1174 19.0519 45.0257C18.7577 44.9342 18.5302 44.7843 18.3665 44.5762C18.2028 44.3681 18.1222 44.1018 18.1222 43.7742C18.1222 43.4414 18.2028 43.1721 18.3665 42.9667C18.5302 42.7614 18.7577 42.6116 19.0519 42.5201C19.346 42.4284 19.6929 42.384 20.0897 42.384H21.2052C21.602 42.384 21.9489 42.4284 22.243 42.5201C22.5372 42.6116 22.7647 42.7614 22.9284 42.9667C23.0921 43.1721 23.1726 43.4414 23.1726 43.7742ZM24.5934 43.7742C24.5934 43.2193 24.4547 42.7448 24.1771 42.3535C23.8997 41.9623 23.5223 41.6625 23.0421 41.4489C22.5622 41.238 22.0211 41.1326 21.4217 41.1326H19.8733C19.274 41.1326 18.7355 41.238 18.2555 41.4489C17.7755 41.6625 17.3953 41.9623 17.1178 42.3535C16.8403 42.7448 16.7016 43.2193 16.7016 43.7742C16.7016 44.3237 16.8403 44.7955 17.1178 45.1894C17.3953 45.5835 17.7755 45.8859 18.2555 46.0996C18.7355 46.3132 19.274 46.4187 19.8733 46.4187H21.4217C22.0211 46.4187 22.5622 46.3132 23.0421 46.0996C23.5223 45.8859 23.8997 45.5835 24.1771 45.1894C24.4547 44.7955 24.5934 44.3237 24.5934 43.7742ZM26.0221 40.35V47.2012H27.4234V40.35H26.0221ZM26.8739 41.5322H28.2336C28.6055 41.5322 28.8996 41.6154 29.1161 41.7818C29.3297 41.9483 29.4379 42.1982 29.4379 42.531C29.4379 42.8586 29.3297 43.1054 29.1161 43.2748C28.8996 43.4439 28.6055 43.53 28.2336 43.53H26.8739V44.7149H28.2336C28.7747 44.7149 29.2381 44.6261 29.6211 44.4486C30.0013 44.2737 30.2954 44.0212 30.4979 43.6911C30.7006 43.3608 30.8005 42.9751 30.8005 42.531C30.8005 42.0815 30.7006 41.6932 30.4979 41.3656C30.2954 41.041 30.0013 40.7885 29.6211 40.6137C29.2381 40.4388 28.7747 40.35 28.2336 40.35H26.8739V41.5322ZM33.2669 43.7742C33.2669 43.3386 33.3584 42.9501 33.5416 42.6088C33.7219 42.2703 33.9744 42.0038 34.2936 41.8069C34.6128 41.6098 34.9845 41.5127 35.409 41.5127C35.8393 41.5127 36.2166 41.6098 36.5358 41.8069C36.8548 42.0038 37.1045 42.2703 37.2794 42.6088C37.4542 42.9501 37.543 43.3386 37.543 43.7742C37.543 44.2127 37.4542 44.6011 37.2739 44.9396C37.0936 45.2811 36.8466 45.5474 36.5274 45.7417C36.2082 45.9386 35.8336 46.0358 35.409 46.0358C34.9845 46.0358 34.6128 45.9386 34.2936 45.7417C33.9744 45.5474 33.7219 45.2811 33.5416 44.9396C33.3584 44.6011 33.2669 44.2127 33.2669 43.7742ZM31.7878 43.7742C31.7878 44.2905 31.8766 44.7677 32.0543 45.2089C32.2291 45.6502 32.4816 46.0331 32.8063 46.3577C33.1309 46.6851 33.5167 46.9376 33.9578 47.1181C34.3991 47.2985 34.8819 47.3873 35.409 47.3873C35.9391 47.3873 36.422 47.2985 36.8632 47.1181C37.3043 46.9376 37.6846 46.6851 38.0092 46.3577C38.3339 46.0331 38.5836 45.6502 38.764 45.2089C38.9444 44.7677 39.0332 44.2905 39.0332 43.7742C39.0332 43.2525 38.9444 42.7753 38.764 42.3396C38.5836 41.9068 38.331 41.5293 38.0009 41.2101C37.6707 40.8911 37.285 40.6441 36.8494 40.4693C36.4137 40.2972 35.9335 40.2113 35.409 40.2113C34.8957 40.2113 34.4184 40.2972 33.9773 40.4693C33.536 40.6441 33.1504 40.8911 32.8256 41.2101C32.5011 41.5293 32.2457 41.9068 32.0625 42.3396C31.8793 42.7753 31.7878 43.2525 31.7878 43.7742ZM41.4608 43.7272H42.6927C43.1506 43.7272 43.5502 43.6632 43.8971 43.5356C44.244 43.408 44.5131 43.2193 44.7101 42.9723C44.9071 42.7253 45.0043 42.4284 45.0043 42.0815C45.0043 41.6903 44.9071 41.3656 44.7101 41.1104C44.5131 40.8579 44.244 40.6664 43.8971 40.5387C43.5502 40.4139 43.1506 40.35 42.6927 40.35H40.4118V47.2012H42.8398C43.3477 47.2012 43.7944 47.1319 44.1802 46.9959C44.5659 46.8599 44.8627 46.6463 45.0764 46.3577C45.29 46.0719 45.3955 45.7029 45.3955 45.2533C45.3955 44.9148 45.3261 44.6234 45.1846 44.382C45.0432 44.1405 44.8543 43.9407 44.613 43.7881C44.3716 43.6355 44.0969 43.5245 43.7943 43.4523C43.4919 43.3803 43.1729 43.3442 42.8398 43.3442H41.4608V44.1073H42.7122C42.887 44.1073 43.0507 44.1239 43.2033 44.16C43.3532 44.1961 43.4864 44.2571 43.6002 44.3376C43.7139 44.4179 43.8 44.5207 43.8637 44.6401C43.9248 44.7621 43.9554 44.9064 43.9554 45.0758C43.9554 45.3117 43.9026 45.5031 43.7943 45.6528C43.6862 45.8055 43.5391 45.9136 43.3504 45.9831C43.1588 46.0525 42.9481 46.0857 42.7122 46.0857H41.8131V41.4655H42.5651C42.8731 41.4655 43.1145 41.5349 43.295 41.6709C43.4753 41.8068 43.5641 42.0067 43.5641 42.2676C43.5641 42.4367 43.5225 42.5838 43.4421 42.7087C43.3615 42.8336 43.245 42.9279 43.0952 42.9917C42.9453 43.0556 42.7676 43.0888 42.5651 43.0888H41.4608V43.7272ZM47.97 43.7742C47.97 43.3386 48.0617 42.9501 48.2449 42.6088C48.4252 42.2703 48.6777 42.0038 48.9968 41.8069C49.3159 41.6098 49.6878 41.5127 50.1123 41.5127C50.5425 41.5127 50.9199 41.6098 51.2389 41.8069C51.5581 42.0038 51.8078 42.2703 51.9827 42.6088C52.1575 42.9501 52.2463 43.3386 52.2463 43.7742C52.2463 44.2127 52.1575 44.6011 51.977 44.9396C51.7967 45.2811 51.5499 45.5474 51.2306 45.7417C50.9115 45.9386 50.5369 46.0358 50.1123 46.0358C49.6878 46.0358 49.3159 45.9386 48.9968 45.7417C48.6777 45.5474 48.4252 45.2811 48.2449 44.9396C48.0617 44.6011 47.97 44.2127 47.97 43.7742ZM46.4911 43.7742C46.4911 44.2905 46.5799 44.7677 46.7576 45.2089C46.9324 45.6502 47.1849 46.0331 47.5095 46.3577C47.8342 46.6851 48.2199 46.9376 48.6611 47.1181C49.1023 47.2985 49.5851 47.3873 50.1123 47.3873C50.6424 47.3873 51.1253 47.2985 51.5665 47.1181C52.0076 46.9376 52.3877 46.6851 52.7124 46.3577C53.0372 46.0331 53.2868 45.6502 53.4672 45.2089C53.6475 44.7677 53.7363 44.2905 53.7363 43.7742C53.7363 43.2525 53.6475 42.7753 53.4672 42.3396C53.2868 41.9068 53.0343 41.5293 52.7042 41.2101C52.3739 40.8911 51.9881 40.6441 51.5526 40.4693C51.1169 40.2972 50.6368 40.2113 50.1123 40.2113C49.599 40.2113 49.1217 40.2972 48.6806 40.4693C48.2392 40.6441 47.8537 40.8911 47.5289 41.2101C47.2042 41.5293 46.949 41.9068 46.7658 42.3396C46.5826 42.7753 46.4911 43.2525 46.4911 43.7742ZM61.292 41.8262L61.3419 40.0059L55.1649 45.7222L55.1151 47.5426L61.292 41.8262ZM56.4664 40.35H55.1151V47.5426L56.4664 46.0857V40.35ZM61.3419 40.0059L59.9905 41.5043V47.2012H61.3419V40.0059ZM56.8881 38.2549C56.8881 38.5074 56.9492 38.7433 57.0685 38.9569C57.1878 39.1735 57.3683 39.3456 57.6068 39.476C57.8455 39.6063 58.1341 39.673 58.4726 39.673C58.8195 39.673 59.1081 39.6063 59.344 39.476C59.5798 39.3456 59.7574 39.1735 59.8823 38.9569C60.0071 38.7433 60.0682 38.5074 60.0682 38.2549H59.1775C59.1775 38.3576 59.1526 38.4604 59.1053 38.5574C59.0554 38.6545 58.9777 38.7351 58.8751 38.796C58.7696 38.86 58.6363 38.8904 58.4726 38.8904C58.3145 38.8904 58.184 38.86 58.0814 38.796C57.9788 38.7351 57.9011 38.6545 57.8484 38.5574C57.7956 38.4604 57.7679 38.3576 57.7679 38.2549H56.8881ZM72.5295 41.8262L72.5794 40.0059L66.4024 45.7222L66.3525 47.5426L72.5295 41.8262ZM67.7039 40.35H66.3525V47.5426L67.7039 46.0857V40.35ZM72.5794 40.0059L71.2279 41.5043V47.2012H72.5794V40.0059ZM74.821 44.1849H79.852V42.9223H74.821V44.1849ZM78.9611 40.35V47.2012H80.3626V40.35H78.9611ZM74.3604 40.35V47.2012H75.7617V40.35H74.3604ZM81.447 41.6126H83.2869V47.2012H84.6882V41.6126H86.539V40.35H81.447V41.6126ZM88.5254 47.2012H91.9801V46.0164H88.5254V47.2012ZM88.5254 41.5322H91.9801V40.35H88.5254V41.5322ZM88.5254 44.1461H91.7832V42.9834H88.5254V44.1461ZM87.6236 40.35V47.2012H88.975V40.35H87.6236ZM93.6918 40.35V47.2012H95.0932V41.6126H97.5491V40.35H93.6918ZM98.6835 40.35V47.2012H100.085V40.35H98.6835ZM99.5353 41.5322H100.895C101.267 41.5322 101.561 41.6154 101.777 41.7818C101.991 41.9483 102.099 42.1982 102.099 42.531C102.099 42.8586 101.991 43.1054 101.777 43.2748C101.561 43.4439 101.267 43.53 100.895 43.53H99.5353V44.7149H100.895C101.436 44.7149 101.9 44.6261 102.283 44.4486C102.663 44.2737 102.957 44.0212 103.159 43.6911C103.362 43.3608 103.462 42.9751 103.462 42.531C103.462 42.0815 103.362 41.6932 103.159 41.3656C102.957 41.041 102.663 40.7885 102.283 40.6137C101.9 40.4388 101.436 40.35 100.895 40.35H99.5353V41.5322ZM105.104 45.6445H108.728L108.562 44.5375H105.271L105.104 45.6445ZM106.897 42.57L107.924 44.9508L107.904 45.3033L108.787 47.2012H110.371L106.897 39.9477L103.423 47.2012H104.999L105.898 45.2422L105.867 44.9314L106.897 42.57ZM110.038 41.6126H111.878V47.2012H113.279V41.6126H115.13V40.35H110.038V41.6126ZM116.813 43.7742C116.813 43.3386 116.904 42.9501 117.087 42.6088C117.268 42.2703 117.52 42.0038 117.839 41.8069C118.159 41.6098 118.53 41.5127 118.955 41.5127C119.385 41.5127 119.762 41.6098 120.082 41.8069C120.401 42.0038 120.65 42.2703 120.825 42.6088C121 42.9501 121.089 43.3386 121.089 43.7742C121.089 44.2127 121 44.6011 120.82 44.9396C120.639 45.2811 120.392 45.5474 120.073 45.7417C119.754 45.9386 119.379 46.0358 118.955 46.0358C118.53 46.0358 118.159 45.9386 117.839 45.7417C117.52 45.5474 117.268 45.2811 117.087 44.9396C116.904 44.6011 116.813 44.2127 116.813 43.7742ZM115.334 43.7742C115.334 44.2905 115.422 44.7677 115.6 45.2089C115.775 45.6502 116.027 46.0331 116.352 46.3577C116.677 46.6851 117.063 46.9376 117.504 47.1181C117.945 47.2985 118.428 47.3873 118.955 47.3873C119.485 47.3873 119.968 47.2985 120.409 47.1181C120.85 46.9376 121.23 46.6851 121.555 46.3577C121.88 46.0331 122.129 45.6502 122.31 45.2089C122.49 44.7677 122.579 44.2905 122.579 43.7742C122.579 43.2525 122.49 42.7753 122.31 42.3396C122.129 41.9068 121.877 41.5293 121.547 41.2101C121.216 40.8911 120.831 40.6441 120.395 40.4693C119.96 40.2972 119.479 40.2113 118.955 40.2113C118.442 40.2113 117.964 40.2972 117.523 40.4693C117.082 40.6441 116.696 40.8911 116.371 41.2101C116.047 41.5293 115.792 41.9068 115.608 42.3396C115.425 42.7753 115.334 43.2525 115.334 43.7742ZM123.958 40.35V47.2012H125.359V40.35H123.958ZM124.809 41.5322H126.169C126.541 41.5322 126.835 41.6154 127.052 41.7818C127.265 41.9483 127.374 42.1982 127.374 42.531C127.374 42.8586 127.265 43.1054 127.052 43.2748C126.835 43.4439 126.541 43.53 126.169 43.53H124.809V44.7149H126.169C126.71 44.7149 127.174 44.6261 127.557 44.4486C127.937 44.2737 128.231 44.0212 128.434 43.6911C128.636 43.3608 128.736 42.9751 128.736 42.531C128.736 42.0815 128.636 41.6932 128.434 41.3656C128.231 41.041 127.937 40.7885 127.557 40.6137C127.174 40.4388 126.71 40.35 126.169 40.35H124.809V41.5322Z" fill="white"/>
</svg>
