<svg width="179" height="49" viewBox="0 0 179 49" fill="none" xmlns="http://www.w3.org/2000/svg">
<path d="M7.078 5.95843H22.8904V0H7.078V5.95843ZM0.371094 32.8361H7.078V5.95886H0.371094V32.8361Z" fill="#112DBC"/>
<path d="M43.5841 0.00146484L33.9212 31.3828V0.00146484H27.2129V32.837H40.2068L49.8694 1.45594V32.837H56.5774V0.00146484H43.5841Z" fill="#112DBC"/>
<path d="M62.1152 0.00146484V32.837H68.8233V5.9589H83.9743V0.00146484H62.1152Z" fill="#112DBC"/>
<path d="M90.5428 0.00146484L79.4727 32.837H86.2743L88.5728 25.707H104.006L106.351 32.837H113.528L102.458 0.00146484H90.5428ZM96.312 1.97207L102.083 19.7499H90.4962L96.312 1.97207Z" fill="#112DBC"/>
<path d="M138.152 0.00146484V13.4643H122.954V0.00146484H116.246V32.837H122.954V19.3748H138.152V32.837H144.86V0.00146484H138.152Z" fill="#112DBC"/>
<path d="M166.434 0H148.521V5.95829H159.69V32.8355H166.4C166.411 21.8904 166.423 10.9453 166.434 0ZM172.099 5.95829H178.37V0H172.099V5.95829ZM172.099 0V5.95829V0Z" fill="#112DBC"/>
<path d="M2.05541 45.9386V40.35H0.634766V47.2013H6.33171V48.4444H7.6553V45.9386H6.65629V40.35H5.2355V45.9386H2.05541ZM15.222 41.8262L15.272 40.0059L9.09499 45.7222L9.04511 47.5426L15.222 41.8262ZM10.3964 40.35H9.04511V47.5426L10.3964 46.0857V40.35ZM15.272 40.0059L13.9205 41.5043V47.2013H15.272V40.0059ZM19.9305 40.35V47.2013H21.3513V40.35H19.9305ZM23.1716 43.7742C23.1716 44.1018 23.0912 44.3681 22.9274 44.5763C22.7637 44.7843 22.5362 44.9342 22.2421 45.0257C21.9479 45.1174 21.601 45.1644 21.2043 45.1644H20.0887C19.6919 45.1644 19.3451 45.1174 19.0509 45.0257C18.7567 44.9342 18.5292 44.7843 18.3655 44.5763C18.2018 44.3681 18.1212 44.1018 18.1212 43.7742C18.1212 43.4414 18.2018 43.1721 18.3655 42.9667C18.5292 42.7614 18.7567 42.6116 19.0509 42.5201C19.3451 42.4284 19.6919 42.384 20.0887 42.384H21.2043C21.601 42.384 21.9479 42.4284 22.2421 42.5201C22.5362 42.6116 22.7637 42.7614 22.9274 42.9667C23.0912 43.1721 23.1716 43.4414 23.1716 43.7742ZM24.5924 43.7742C24.5924 43.2193 24.4537 42.7448 24.1761 42.3535C23.8988 41.9623 23.5213 41.6625 23.0411 41.4489C22.5612 41.238 22.0201 41.1326 21.4207 41.1326H19.8723C19.273 41.1326 18.7346 41.238 18.2545 41.4489C17.7745 41.6625 17.3944 41.9623 17.1168 42.3535C16.8393 42.7448 16.7006 43.2193 16.7006 43.7742C16.7006 44.3237 16.8393 44.7955 17.1168 45.1895C17.3944 45.5835 17.7745 45.8859 18.2545 46.0996C18.7346 46.3132 19.273 46.4187 19.8723 46.4187H21.4207C22.0201 46.4187 22.5612 46.3132 23.0411 46.0996C23.5213 45.8859 23.8988 45.5835 24.1761 45.1895C24.4537 44.7955 24.5924 44.3237 24.5924 43.7742ZM26.0211 40.35V47.2013H27.4225V40.35H26.0211ZM26.8729 41.5322H28.2326C28.6045 41.5322 28.8987 41.6154 29.1151 41.7819C29.3287 41.9483 29.437 42.1982 29.437 42.531C29.437 42.8586 29.3287 43.1054 29.1151 43.2748C28.8987 43.4439 28.6045 43.5301 28.2326 43.5301H26.8729V44.7149H28.2326C28.7738 44.7149 29.2372 44.6261 29.6201 44.4486C30.0003 44.2737 30.2944 44.0212 30.4969 43.6911C30.6996 43.3608 30.7995 42.9751 30.7995 42.531C30.7995 42.0816 30.6996 41.6932 30.4969 41.3656C30.2944 41.041 30.0003 40.7885 29.6201 40.6137C29.2372 40.4388 28.7738 40.35 28.2326 40.35H26.8729V41.5322ZM33.2659 43.7742C33.2659 43.3386 33.3574 42.9501 33.5406 42.6088C33.7209 42.2703 33.9735 42.0038 34.2926 41.8069C34.6118 41.6098 34.9836 41.5127 35.408 41.5127C35.8383 41.5127 36.2156 41.6098 36.5348 41.8069C36.8538 42.0038 37.1035 42.2703 37.2785 42.6088C37.4533 42.9501 37.5421 43.3386 37.5421 43.7742C37.5421 44.2127 37.4532 44.6011 37.2729 44.9396C37.0926 45.2811 36.8456 45.5474 36.5264 45.7417C36.2072 45.9386 35.8327 46.0358 35.408 46.0358C34.9836 46.0358 34.6118 45.9386 34.2926 45.7417C33.9735 45.5474 33.7209 45.2811 33.5406 44.9396C33.3574 44.6011 33.2659 44.2127 33.2659 43.7742ZM31.7869 43.7742C31.7869 44.2905 31.8757 44.7677 32.0533 45.2089C32.2281 45.6502 32.4806 46.0331 32.8053 46.3577C33.1299 46.6851 33.5157 46.9377 33.9568 47.1181C34.3981 47.2985 34.881 47.3873 35.408 47.3873C35.9381 47.3873 36.421 47.2985 36.8622 47.1181C37.3033 46.9377 37.6836 46.6851 38.0082 46.3577C38.3329 46.0331 38.5826 45.6502 38.7631 45.2089C38.9434 44.7677 39.0322 44.2905 39.0322 43.7742C39.0322 43.2525 38.9434 42.7753 38.7631 42.3396C38.5826 41.9068 38.3301 41.5293 37.9999 41.2101C37.6697 40.8911 37.284 40.6441 36.8484 40.4693C36.4127 40.2973 35.9326 40.2113 35.408 40.2113C34.8947 40.2113 34.4174 40.2973 33.9763 40.4693C33.5351 40.6441 33.1494 40.8911 32.8247 41.2101C32.5001 41.5293 32.2447 41.9068 32.0616 42.3396C31.8784 42.7753 31.7869 43.2525 31.7869 43.7742ZM41.4598 43.7272H42.6918C43.1496 43.7272 43.5492 43.6632 43.8961 43.5356C44.243 43.408 44.5122 43.2193 44.7091 42.9723C44.9061 42.7253 45.0033 42.4284 45.0033 42.0816C45.0033 41.6903 44.9061 41.3656 44.7091 41.1104C44.5122 40.8579 44.243 40.6664 43.8961 40.5387C43.5492 40.4139 43.1496 40.35 42.6918 40.35H40.4108V47.2013H42.8388C43.3467 47.2013 43.7934 47.1319 44.1792 46.9959C44.5649 46.8599 44.8617 46.6463 45.0755 46.3577C45.2891 46.0719 45.3945 45.7029 45.3945 45.2533C45.3945 44.9148 45.3251 44.6234 45.1836 44.382C45.0422 44.1406 44.8534 43.9407 44.6121 43.7881C44.3706 43.6355 44.0959 43.5245 43.7934 43.4523C43.491 43.3803 43.1719 43.3442 42.8388 43.3442H41.4598V44.1073H42.7112C42.886 44.1073 43.0497 44.1239 43.2023 44.16C43.3523 44.1961 43.4854 44.2571 43.5993 44.3377C43.7129 44.4179 43.7991 44.5207 43.8627 44.6401C43.9238 44.7621 43.9544 44.9064 43.9544 45.0758C43.9544 45.3117 43.9017 45.5031 43.7934 45.6529C43.6852 45.8055 43.5382 45.9136 43.3494 45.9831C43.1579 46.0525 42.9471 46.0857 42.7112 46.0857H41.8121V41.4655H42.5641C42.8721 41.4655 43.1135 41.5349 43.294 41.6709C43.4743 41.8069 43.5632 42.0067 43.5632 42.2676C43.5632 42.4367 43.5215 42.5838 43.4411 42.7087C43.3605 42.8336 43.244 42.9279 43.0942 42.9918C42.9443 43.0556 42.7666 43.0888 42.5641 43.0888H41.4598V43.7272ZM47.9691 43.7742C47.9691 43.3386 48.0607 42.9501 48.2439 42.6088C48.4242 42.2703 48.6768 42.0038 48.9958 41.8069C49.315 41.6098 49.6869 41.5127 50.1113 41.5127C50.5415 41.5127 50.9189 41.6098 51.238 41.8069C51.5571 42.0038 51.8068 42.2703 51.9817 42.6088C52.1565 42.9501 52.2454 43.3386 52.2454 43.7742C52.2454 44.2127 52.1565 44.6011 51.9761 44.9396C51.7957 45.2811 51.5489 45.5474 51.2296 45.7417C50.9105 45.9386 50.5359 46.0358 50.1113 46.0358C49.6869 46.0358 49.315 45.9386 48.9958 45.7417C48.6768 45.5474 48.4242 45.2811 48.2439 44.9396C48.0607 44.6011 47.9691 44.2127 47.9691 43.7742ZM46.4901 43.7742C46.4901 44.2905 46.579 44.7677 46.7566 45.2089C46.9314 45.6502 47.1839 46.0331 47.5085 46.3577C47.8332 46.6851 48.2189 46.9377 48.6601 47.1181C49.1014 47.2985 49.5841 47.3873 50.1113 47.3873C50.6414 47.3873 51.1243 47.2985 51.5655 47.1181C52.0066 46.9377 52.3868 46.6851 52.7115 46.3577C53.0362 46.0331 53.2859 45.6502 53.4662 45.2089C53.6465 44.7677 53.7354 44.2905 53.7354 43.7742C53.7354 43.2525 53.6465 42.7753 53.4662 42.3396C53.2859 41.9068 53.0333 41.5293 52.7032 41.2101C52.373 40.8911 51.9872 40.6441 51.5516 40.4693C51.1159 40.2973 50.6359 40.2113 50.1113 40.2113C49.598 40.2113 49.1207 40.2973 48.6796 40.4693C48.2382 40.6441 47.8527 40.8911 47.528 41.2101C47.2032 41.5293 46.948 41.9068 46.7648 42.3396C46.5817 42.7753 46.4901 43.2525 46.4901 43.7742ZM61.2911 41.8262L61.3409 40.0059L55.164 45.7222L55.1141 47.5426L61.2911 41.8262ZM56.4654 40.35H55.1141V47.5426L56.4654 46.0857V40.35ZM61.3409 40.0059L59.9895 41.5043V47.2013H61.3409V40.0059ZM56.8872 38.2549C56.8872 38.5074 56.9483 38.7433 57.0675 38.9569C57.1869 39.1735 57.3673 39.3456 57.6058 39.476C57.8445 39.6063 58.1332 39.673 58.4717 39.673C58.8185 39.673 59.1072 39.6063 59.3431 39.476C59.5788 39.3456 59.7564 39.1735 59.8814 38.9569C60.0061 38.7433 60.0672 38.5074 60.0672 38.2549H59.1765C59.1765 38.3576 59.1516 38.4604 59.1043 38.5574C59.0544 38.6545 58.9767 38.7351 58.8741 38.796C58.7687 38.86 58.6354 38.8904 58.4717 38.8904C58.3135 38.8904 58.183 38.86 58.0804 38.796C57.9778 38.7351 57.9001 38.6545 57.8474 38.5574C57.7947 38.4604 57.7669 38.3576 57.7669 38.2549H56.8872ZM72.5285 41.8262L72.5784 40.0059L66.4014 45.7222L66.3515 47.5426L72.5285 41.8262ZM67.703 40.35H66.3515V47.5426L67.703 46.0857V40.35ZM72.5784 40.0059L71.2269 41.5043V47.2013H72.5784V40.0059ZM74.82 44.1849H79.851V42.9223H74.82V44.1849ZM78.9601 40.35V47.2013H80.3616V40.35H78.9601ZM74.3594 40.35V47.2013H75.7607V40.35H74.3594ZM81.446 41.6126H83.2859V47.2013H84.6872V41.6126H86.538V40.35H81.446V41.6126ZM88.5244 47.2013H91.9792V46.0164H88.5244V47.2013ZM88.5244 41.5322H91.9792V40.35H88.5244V41.5322ZM88.5244 44.1461H91.7822V42.9834H88.5244V44.1461ZM87.6226 40.35V47.2013H88.974V40.35H87.6226ZM93.6909 40.35V47.2013H95.0922V41.6126H97.5481V40.35H93.6909ZM98.6825 40.35V47.2013H100.084V40.35H98.6825ZM99.5343 41.5322H100.894C101.266 41.5322 101.56 41.6154 101.776 41.7819C101.99 41.9483 102.098 42.1982 102.098 42.531C102.098 42.8586 101.99 43.1054 101.776 43.2748C101.56 43.4439 101.266 43.5301 100.894 43.5301H99.5343V44.7149H100.894C101.435 44.7149 101.899 44.6261 102.282 44.4486C102.662 44.2737 102.956 44.0212 103.158 43.6911C103.361 43.3608 103.461 42.9751 103.461 42.531C103.461 42.0816 103.361 41.6932 103.158 41.3656C102.956 41.041 102.662 40.7885 102.282 40.6137C101.899 40.4388 101.435 40.35 100.894 40.35H99.5343V41.5322ZM105.103 45.6445H108.727L108.561 44.5375H105.27L105.103 45.6445ZM106.896 42.57L107.923 44.9509L107.903 45.3033L108.786 47.2013H110.37L106.896 39.9477L103.422 47.2013H104.998L105.897 45.2422L105.866 44.9314L106.896 42.57ZM110.037 41.6126H111.877V47.2013H113.278V41.6126H115.129V40.35H110.037V41.6126ZM116.812 43.7742C116.812 43.3386 116.903 42.9501 117.086 42.6088C117.267 42.2703 117.519 42.0038 117.838 41.8069C118.158 41.6098 118.529 41.5127 118.954 41.5127C119.384 41.5127 119.761 41.6098 120.081 41.8069C120.4 42.0038 120.649 42.2703 120.824 42.6088C120.999 42.9501 121.088 43.3386 121.088 43.7742C121.088 44.2127 120.999 44.6011 120.819 44.9396C120.638 45.2811 120.391 45.5474 120.072 45.7417C119.753 45.9386 119.378 46.0358 118.954 46.0358C118.529 46.0358 118.158 45.9386 117.838 45.7417C117.519 45.5474 117.267 45.2811 117.086 44.9396C116.903 44.6011 116.812 44.2127 116.812 43.7742ZM115.333 43.7742C115.333 44.2905 115.422 44.7677 115.599 45.2089C115.774 45.6502 116.026 46.0331 116.351 46.3577C116.676 46.6851 117.062 46.9377 117.503 47.1181C117.944 47.2985 118.427 47.3873 118.954 47.3873C119.484 47.3873 119.967 47.2985 120.408 47.1181C120.849 46.9377 121.229 46.6851 121.554 46.3577C121.879 46.0331 122.128 45.6502 122.309 45.2089C122.489 44.7677 122.578 44.2905 122.578 43.7742C122.578 43.2525 122.489 42.7753 122.309 42.3396C122.128 41.9068 121.876 41.5293 121.546 41.2101C121.216 40.8911 120.83 40.6441 120.394 40.4693C119.959 40.2973 119.478 40.2113 118.954 40.2113C118.441 40.2113 117.963 40.2973 117.522 40.4693C117.081 40.6441 116.695 40.8911 116.371 41.2101C116.046 41.5293 115.791 41.9068 115.607 42.3396C115.424 42.7753 115.333 43.2525 115.333 43.7742ZM123.957 40.35V47.2013H125.358V40.35H123.957ZM124.808 41.5322H126.168C126.54 41.5322 126.834 41.6154 127.051 41.7819C127.264 41.9483 127.373 42.1982 127.373 42.531C127.373 42.8586 127.264 43.1054 127.051 43.2748C126.834 43.4439 126.54 43.5301 126.168 43.5301H124.808V44.7149H126.168C126.709 44.7149 127.173 44.6261 127.556 44.4486C127.936 44.2737 128.23 44.0212 128.433 43.6911C128.635 43.3608 128.735 42.9751 128.735 42.531C128.735 42.0816 128.635 41.6932 128.433 41.3656C128.23 41.041 127.936 40.7885 127.556 40.6137C127.173 40.4388 126.709 40.35 126.168 40.35H124.808V41.5322Z" fill="#112DBC"/>
</svg>
