<svg width="349" height="310" viewBox="0 0 349 310" fill="none" xmlns="http://www.w3.org/2000/svg">
<path d="M174.17 310C77.9776 310 0 305.34 0 299.594C0 293.848 77.9776 289.187 174.17 289.187C270.362 289.187 348.339 293.848 348.339 299.594C348.339 305.34 270.362 310 174.17 310Z" fill="#D8D8E9"/>
<path d="M4.38159 203.746V239.21C4.38159 242.604 7.16733 245.371 10.5731 245.371H337.767C341.177 245.371 343.958 242.604 343.958 239.21V203.746H4.38159Z" fill="#E9E9F3"/>
<path d="M343.958 6.21707C343.958 2.79596 341.177 0 337.767 0H10.575C7.16794 0 4.38159 2.79596 4.38159 6.21707V203.746H343.958V6.21707Z" fill="#8D8DA9"/>
<path d="M116.113 281.519H233.322V245.371H116.113V281.519Z" fill="#E7E7F3"/>
<path d="M88.7279 299.046H259.611V281.519H88.7279V299.046Z" fill="#F8F8FF"/>
<path d="M116.113 258.516H233.322V245.371H116.113V258.516Z" fill="#BCBCDA"/>
<path d="M21.9081 185.124H327.526V17.5265H21.9081V185.124Z" fill="#FCFCFD"/>
<path d="M90.8037 119.906H143.092V109.414H130.794L129.332 110.704H107.832L122.022 90.408V114.918L120.99 115.864V131H133.632V70.8H125.29L90.8037 119.906ZM161.763 100.9C161.763 97.8613 162.05 95.1093 162.623 92.644C163.196 90.1213 164.028 87.9713 165.117 86.194C166.206 84.3593 167.496 82.9547 168.987 81.98C170.478 81.0053 172.14 80.518 173.975 80.518C175.867 80.518 177.558 81.0053 179.049 81.98C180.54 82.9547 181.83 84.3593 182.919 86.194C184.008 87.9713 184.84 90.1213 185.413 92.644C185.986 95.1093 186.273 97.8613 186.273 100.9C186.273 103.939 185.986 106.719 185.413 109.242C184.84 111.707 184.008 113.857 182.919 115.692C181.83 117.469 180.54 118.845 179.049 119.82C177.558 120.795 175.867 121.282 173.975 121.282C172.14 121.282 170.478 120.795 168.987 119.82C167.496 118.845 166.206 117.469 165.117 115.692C164.028 113.857 163.196 111.707 162.623 109.242C162.05 106.719 161.763 103.939 161.763 100.9ZM149.809 100.9C149.809 107.264 150.812 112.768 152.819 117.412C154.883 122.056 157.721 125.668 161.333 128.248C165.002 130.771 169.216 132.032 173.975 132.032C178.906 132.032 183.177 130.771 186.789 128.248C190.401 125.668 193.21 122.056 195.217 117.412C197.224 112.768 198.227 107.264 198.227 100.9C198.227 94.536 197.224 89.032 195.217 84.388C193.21 79.744 190.401 76.1607 186.789 73.638C183.177 71.058 178.906 69.768 173.975 69.768C169.216 69.768 165.002 71.058 161.333 73.638C157.721 76.1607 154.883 79.744 152.819 84.388C150.812 89.032 149.809 94.536 149.809 100.9ZM203.007 119.906H255.295V109.414H242.997L241.535 110.704H220.035L234.225 90.408V114.918L233.193 115.864V131H245.835V70.8H237.493L203.007 119.906Z" fill="#CFCFE3"/>
</svg>
