<svg width="18" height="11" viewBox="0 0 18 11" fill="none" xmlns="http://www.w3.org/2000/svg">
<path fill-rule="evenodd" clip-rule="evenodd" d="M11.9686 10.7697C12.1154 10.9172 12.3144 11 12.5219 11C12.7294 11 12.9284 10.9172 13.0752 10.7697L17.7709 6.05125C17.9176 5.90377 18 5.70378 18 5.49525C18 5.28672 17.9176 5.08673 17.7709 4.93926L13.0752 0.220756C12.9276 0.0775043 12.7299 -0.00176206 12.5247 2.97286e-05C12.3195 0.00182152 12.1232 0.0845281 11.9781 0.230336C11.833 0.376144 11.7507 0.573387 11.7489 0.779583C11.7472 0.985779 11.826 1.18443 11.9686 1.33275L15.3283 4.70884H0.782608C0.575048 4.70884 0.375988 4.79169 0.229219 4.93917C0.0824528 5.08665 0 5.28668 0 5.49525C0 5.70382 0.0824528 5.90385 0.229219 6.05133C0.375988 6.19881 0.575048 6.28167 0.782608 6.28167H15.3283L11.9686 9.65775C11.8219 9.80523 11.7395 10.0052 11.7395 10.2138C11.7395 10.4223 11.8219 10.6223 11.9686 10.7697Z" fill="#A0A0B8"/>
</svg>
