<svg width="7" height="11" viewBox="0 0 7 11" fill="none" xmlns="http://www.w3.org/2000/svg">
<path fill-rule="evenodd" clip-rule="evenodd" d="M0.305288 0.292787C0.117817 0.480314 0.0125018 0.734622 0.0125018 0.999786C0.0125017 1.26495 0.117817 1.51926 0.305288 1.70679L3.59829 4.99979L0.305288 8.29279C0.209778 8.38503 0.133595 8.49538 0.0811865 8.61738C0.0287775 8.73939 0.00119119 8.87061 3.73635e-05 9.00339C-0.00111646 9.13616 0.024185 9.26784 0.0744659 9.39074C0.124747 9.51364 0.199 9.62529 0.292893 9.71918C0.386785 9.81307 0.498437 9.88733 0.621334 9.93761C0.74423 9.98789 0.87591 10.0132 1.00869 10.012C1.14147 10.0109 1.27269 9.9833 1.39469 9.93089C1.5167 9.87848 1.62704 9.8023 1.71929 9.70679L5.71929 5.70679C5.90676 5.51926 6.01207 5.26495 6.01207 4.99979C6.01207 4.73462 5.90676 4.48031 5.71929 4.29279L1.71929 0.292787C1.53176 0.105316 1.27745 5.58392e-08 1.01229 4.42485e-08C0.747124 3.26578e-08 0.492816 0.105316 0.305288 0.292787V0.292787Z" fill="#112DBC"/>
</svg>
