<svg width="26" height="26" viewBox="0 0 26 26" fill="none" xmlns="http://www.w3.org/2000/svg">
<path d="M3.25 20.5833V10.9092C3.24995 10.5526 3.33792 10.2014 3.50611 9.88698C3.6743 9.57251 3.91752 9.30443 4.21417 9.10651L11.7975 4.05167C12.1535 3.81412 12.572 3.68735 13 3.68735C13.428 3.68735 13.8465 3.81412 14.2025 4.05167L21.7858 9.10651C22.0825 9.30443 22.3257 9.57251 22.4939 9.88698C22.6621 10.2014 22.7501 10.5526 22.75 10.9092V20.5833M3.25 20.5833C3.25 21.158 3.47827 21.7091 3.8846 22.1154C4.29093 22.5217 4.84203 22.75 5.41667 22.75H20.5833C21.158 22.75 21.7091 22.5217 22.1154 22.1154C22.5217 21.7091 22.75 21.158 22.75 20.5833M3.25 20.5833L10.5625 15.7083M22.75 20.5833L15.4375 15.7083M3.25 10.8333L10.5625 15.7083M22.75 10.8333L15.4375 15.7083M15.4375 15.7083L14.2025 16.5317C13.8465 16.7692 13.428 16.896 13 16.896C12.572 16.896 12.1535 16.7692 11.7975 16.5317L10.5625 15.7083" stroke="#747894" stroke-width="2" stroke-linecap="round" stroke-linejoin="round"/>
</svg>
