<svg width="26" height="26" viewBox="0 0 26 26" fill="none" xmlns="http://www.w3.org/2000/svg">
<path d="M3.25 5.41667C3.25 4.84203 3.47827 4.29093 3.8846 3.8846C4.29093 3.47827 4.84203 3.25 5.41667 3.25H8.97C9.19728 3.25017 9.41874 3.32182 9.60305 3.4548C9.78736 3.58779 9.92518 3.77537 9.997 3.991L11.6198 8.85842C11.7021 9.10578 11.6923 9.37451 11.5924 9.61528C11.4926 9.85606 11.3092 10.0527 11.076 10.1693L8.63092 11.3934C9.82943 14.046 11.954 16.1706 14.6066 17.3691L15.8308 14.924C15.9473 14.6908 16.1439 14.5074 16.3847 14.4076C16.6255 14.3077 16.8942 14.2979 17.1416 14.3802L22.009 16.003C22.2248 16.0749 22.4125 16.2129 22.5455 16.3974C22.6785 16.5819 22.7501 16.8036 22.75 17.0311V20.5833C22.75 21.158 22.5217 21.7091 22.1154 22.1154C21.7091 22.5217 21.158 22.75 20.5833 22.75H19.5C10.5257 22.75 3.25 15.4743 3.25 6.5V5.41667Z" stroke="#747894" stroke-width="2" stroke-linecap="round" stroke-linejoin="round"/>
</svg>
