<svg width="25" height="33" viewBox="0 0 25 33" fill="none" xmlns="http://www.w3.org/2000/svg">
<path d="M24 14.9482C24 17.8254 22.7884 20.5848 20.6317 22.6193C18.4751 24.6538 15.55 25.7968 12.5 25.7968M12.5 25.7968C9.45001 25.7968 6.52494 24.6538 4.36827 22.6193C2.2116 20.5848 1 17.8254 1 14.9482M12.5 25.7968V31.996M12.5 31.996H5.92857M12.5 31.996H19.0714M12.5 19.5976C11.1929 19.5976 9.93926 19.1077 9.01497 18.2358C8.09069 17.3639 7.57143 16.1813 7.57143 14.9482V5.6494C7.57143 4.4163 8.09069 3.23371 9.01497 2.36178C9.93926 1.48985 11.1929 1 12.5 1C13.8071 1 15.0607 1.48985 15.985 2.36178C16.9093 3.23371 17.4286 4.4163 17.4286 5.6494V14.9482C17.4286 16.1813 16.9093 17.3639 15.985 18.2358C15.0607 19.1077 13.8071 19.5976 12.5 19.5976V19.5976Z" stroke="white" stroke-width="2" stroke-linecap="round" stroke-linejoin="round"/>
</svg>
