<svg width="30" height="31" viewBox="0 0 30 31" fill="none" xmlns="http://www.w3.org/2000/svg">
<path d="M29 18.9272C24.5519 20.6694 19.798 21.5622 15 21.5565C10.0487 21.5565 5.32444 20.6223 1 18.9272M21.2222 7.99575V4.98225C21.2222 4.18302 20.8944 3.41652 20.311 2.85138C19.7276 2.28624 18.9362 1.96875 18.1111 1.96875H11.8889C11.0638 1.96875 10.2724 2.28624 9.689 2.85138C9.10556 3.41652 8.77778 4.18302 8.77778 4.98225V7.99575M15 17.0362H15.0156M4.11111 29.0902H25.8889C26.714 29.0902 27.5053 28.7727 28.0888 28.2076C28.6722 27.6425 29 26.876 29 26.0767V11.0092C29 10.21 28.6722 9.44352 28.0888 8.87838C27.5053 8.31324 26.714 7.99575 25.8889 7.99575H4.11111C3.28599 7.99575 2.49467 8.31324 1.91122 8.87838C1.32778 9.44352 1 10.21 1 11.0092V26.0767C1 26.876 1.32778 27.6425 1.91122 28.2076C2.49467 28.7727 3.28599 29.0902 4.11111 29.0902Z" stroke="white" stroke-width="2" stroke-linecap="round" stroke-linejoin="round"/>
</svg>
