<svg width="12" height="20" viewBox="0 0 12 20" fill="none" xmlns="http://www.w3.org/2000/svg">
<g clip-path="url(#clip0_237_29)">
<path d="M8.10493 14.5341C9.2137 14.2894 10.2711 13.8615 11.2309 13.2691L11.1906 13.2924C11.5261 13.0719 11.7601 12.733 11.8429 12.3477C11.9257 11.9623 11.8508 11.5607 11.6342 11.2281C11.4176 10.8954 11.0763 10.6579 10.6826 10.5658C10.2888 10.4738 9.87372 10.5344 9.52522 10.7349L9.53207 10.7307C8.51722 11.3566 7.28207 11.7274 5.95779 11.7274C4.6335 11.7274 3.3975 11.3557 2.35607 10.7149L2.3835 10.7307C2.03597 10.518 1.61601 10.4475 1.21523 10.5346C0.81445 10.6217 0.465352 10.8594 0.244074 11.1957L0.240646 11.2016V11.2057C0.0213202 11.5436 -0.0513132 11.9523 0.0386559 12.3421C0.128625 12.732 0.373861 13.0713 0.720646 13.2857L0.726646 13.2891C1.65446 13.861 2.67517 14.276 3.7455 14.5166L3.81236 14.5291L0.838931 17.4166C0.692689 17.5561 0.576571 17.7226 0.497386 17.9064C0.4182 18.0901 0.377539 18.2874 0.377788 18.4866C0.377788 18.8941 0.544931 19.2632 0.814931 19.5332L0.840646 19.5582C1.12007 19.8307 1.50665 19.9991 1.9335 19.9991C2.36036 19.9991 2.74693 19.8307 3.02636 19.5582L5.95865 16.7216L8.87293 19.5599C9.01729 19.7003 9.18868 19.8117 9.37732 19.8877C9.56596 19.9637 9.76815 20.0028 9.97234 20.0029C10.1765 20.0029 10.3787 19.9639 10.5674 19.8879C10.7561 19.812 10.9275 19.7007 11.0719 19.5603C11.2163 19.42 11.3309 19.2533 11.4091 19.0699C11.4873 18.8865 11.5275 18.69 11.5276 18.4914C11.5276 18.2929 11.4874 18.0963 11.4093 17.9129C11.3312 17.7295 11.2167 17.5628 11.0724 17.4224L8.10579 14.5341H8.10493ZM5.95779 10.3241C7.00762 10.3231 8.03358 10.0195 8.90599 9.45174C9.7784 8.88397 10.4581 8.07748 10.8591 7.13422C11.2602 6.19096 11.3646 5.15328 11.1591 4.15235C10.9537 3.15141 10.4477 2.23216 9.70496 1.51079C8.96226 0.789413 8.01625 0.298309 6.98652 0.0995496C5.95679 -0.0992096 4.88956 0.00330021 3.91974 0.394121C2.94992 0.784942 2.12105 1.44653 1.5379 2.29525C0.95475 3.14397 0.643503 4.14173 0.643503 5.1624V5.1674C0.646227 6.53595 1.20733 7.84754 2.20365 8.81432C3.19998 9.7811 4.55013 10.3241 5.95779 10.3241ZM5.95779 3.02573C6.39248 3.02573 6.81741 3.15101 7.17889 3.38574C7.54037 3.62046 7.82217 3.9541 7.98867 4.34448C8.15518 4.73486 8.19892 5.16447 8.11436 5.57901C8.02981 5.99356 7.82075 6.37443 7.51362 6.67349C7.20649 6.97256 6.81506 7.1764 6.38881 7.25925C5.96255 7.3421 5.5206 7.30025 5.1188 7.13898C4.71701 6.97771 4.3734 6.70426 4.13141 6.35319C3.88942 6.00212 3.7599 5.58918 3.75922 5.16657V5.1649C3.75922 4.59785 3.9908 4.05399 4.40306 3.65287C4.81532 3.25174 5.37453 3.02617 5.95779 3.02573Z" fill="white"/>
</g>
<defs>
<clipPath id="clip0_237_29">
<rect width="12" height="20" fill="white"/>
</clipPath>
</defs>
</svg>
