<svg width="353" height="73" viewBox="0 0 353 73" fill="none" xmlns="http://www.w3.org/2000/svg">
<g clip-path="url(#clip0_430_975)">
<path d="M98.5508 0.41713C95.4544 0.959419 90.9128 2.46113 88.1466 3.8377C79.1875 8.42628 72.7055 16.8943 70.1044 27.4063C68.7832 32.8708 68.8658 42.0063 70.3109 47.596C74.1505 62.4463 85.1327 71.2063 101.565 72.5411C111.143 73.3337 123.529 70.7891 130.63 66.576C132.282 65.6166 132.53 65.2829 132.53 64.0731C132.53 63.3223 131.828 60.6943 130.92 58.1914C128.896 52.4349 128.814 52.3931 123.694 54.6874C121.63 55.6469 118.162 56.8566 116.015 57.4406C112.588 58.3166 111.432 58.4417 106.932 58.2749C102.886 58.1497 101.276 57.8994 99.4179 57.1903C93.39 54.8126 89.5091 50.2657 88.1466 43.8834L87.8576 42.5486H111.185C138.186 42.5486 136.245 42.8406 136.576 38.544C136.658 37.2091 136.534 33.7051 136.287 30.8269C135.502 21.4828 132.984 14.892 128.112 9.59428C123.653 4.75542 118.245 1.87713 111.226 0.625702C107.427 -0.0417252 101.854 -0.125153 98.5508 0.41713ZM109.244 14.3914C114.859 16.06 118.534 20.7737 119.194 27.156L119.442 29.6171H103.67C90.789 29.6171 87.9402 29.5337 87.9402 29.0748C87.9402 28.0737 89.5504 23.6937 90.5825 21.9C94.3396 15.4343 102.225 12.264 109.244 14.3914Z" fill="#D92231"/>
<path d="M171.422 0.458832C159.242 1.87711 151.398 7.9674 148.755 18.0205C148.177 20.2731 148.053 24.0274 147.93 44.5925C147.806 57.7743 147.847 68.9537 147.971 69.496C148.508 71.6234 149.003 71.7485 156.641 71.7485C162.132 71.7485 163.949 71.6234 164.568 71.1645C165.311 70.5805 165.352 69.7045 165.6 47.0537C165.765 29.0748 165.972 23.1097 166.385 21.6914C167.21 18.8965 170.431 15.8097 173.61 14.8085C176.17 13.9743 182.734 13.724 185.789 14.308C188.143 14.7668 188.638 14.0994 189.753 8.96854C190.991 3.17026 190.991 2.25254 189.835 1.50169C187.771 0.166832 178.399 -0.375458 171.422 0.458832Z" fill="#D92231"/>
<path d="M217.374 0.625702C206.474 2.6697 197.556 9.55256 193.015 19.3971C189.836 26.1966 188.721 32.996 189.505 40.5463C191.074 56.356 199.744 67.2434 214.071 71.4148C216.961 72.2491 218.282 72.3743 224.599 72.3743C233.063 72.3743 235.87 71.7486 242.104 68.4948C246.811 66.0754 252.467 60.6526 255.068 56.064C261.096 45.5103 261.715 30.6183 256.596 19.6474C251.724 9.30227 242.435 2.25256 231.205 0.458839C227.613 -0.12516 220.924 -0.0417328 217.374 0.625702ZM231.287 14.892C235.54 16.8526 238.678 20.9823 240.37 26.9057C241.609 31.2857 241.691 40.7966 240.577 45.0514C238.967 50.9748 235.911 55.3548 232.03 57.3571C226.746 60.0686 220.057 59.4846 215.227 55.9388C206.433 49.5148 205.359 27.9068 213.328 18.5211C214.649 16.9777 217.167 15.3091 219.355 14.5166C222.328 13.432 228.521 13.6406 231.287 14.892Z" fill="#D92231"/>
<path d="M3.22025 1.29315C2.1468 1.91887 2.31194 3.33715 3.96341 7.63373C6.60575 14.6 12.0143 23.7354 18.5788 32.3703L21.7992 36.5834L18.9091 39.4617C11.8904 46.428 4.54142 57.9412 0.990775 67.4103C-0.619401 71.7903 -0.660687 71.7486 8.42235 71.7486C15.1108 71.7486 16.0604 71.6652 16.5971 70.9977C16.9687 70.6223 18.3724 68.036 19.7762 65.2829C22.7901 59.3594 27.5793 51.976 30.5107 48.8057L32.6163 46.5114L34.7219 48.8057C37.9422 52.3514 41.7819 58.4417 45.0022 65.1577C46.6124 68.4949 48.1813 71.3732 48.5529 71.4983C48.9245 71.6234 52.9705 71.7486 57.5946 71.7486C66.9254 71.7486 67.2144 71.6652 66.719 69.1623C66.3474 67.2017 62.5077 59.3177 59.659 54.6457C56.645 49.7234 50.9062 42.048 47.3143 38.1269L44.6307 35.1234L47.4794 31.8697C54.2504 24.1526 60.3608 14.8086 63.3747 7.63373C65.1088 3.42059 65.2739 1.46001 63.9115 1.08458C62.4252 0.709152 51.3604 0.79258 50.2456 1.20972C49.5438 1.50172 48.3464 3.1703 46.4473 6.54916C43.1856 12.3474 39.5111 17.9372 36.6623 21.608C34.9283 23.7772 34.4742 24.1526 33.9787 23.6937C32.5337 22.5257 27.3729 13.9326 24.4828 8.00916C22.1295 3.1703 21.0973 1.50172 20.3542 1.20972C18.9917 0.709152 4.12855 0.75087 3.22025 1.29315Z" fill="#D92231"/>
<path d="M264.729 1.33485C262.376 3.71257 270.179 19.4806 280.17 32.3703L283.308 36.4166L280.831 38.9611C274.845 45.1766 269.477 52.852 265.72 60.4857C262.624 66.7429 261.633 69.4543 261.922 70.7057L262.17 71.7486H269.973C276.331 71.7486 277.858 71.6234 278.271 71.1229C278.56 70.7891 279.84 68.3697 281.161 65.7C284.01 60.0269 288.139 53.5611 291.648 49.2646L294.167 46.2194L295.57 47.8046C300.071 52.9771 304.571 60.2354 307.378 66.7429C309.732 72.1657 308.782 71.7486 319.021 71.7486C327.815 71.7486 327.815 71.7486 328.269 70.7891C328.806 69.6211 327.939 67.2434 324.554 60.6943C320.673 53.0606 315.223 45.26 308.658 37.7931L306.264 35.04L308.906 32.0366C316.75 23.1097 322.778 13.6823 325.751 5.75657C326.783 3.00343 326.783 1.83543 325.792 1.25143C324.595 0.62571 312.993 0.709137 311.713 1.37657C311.094 1.71028 309.69 3.67085 308.08 6.46571C304.736 12.3891 299.782 19.856 297.511 22.3589L295.736 24.3611L292.35 19.1469C290.492 16.3103 287.643 11.3046 286.033 8.00914C284.423 4.75542 282.73 1.79371 282.235 1.46C281.12 0.62571 265.514 0.542282 264.729 1.33485Z" fill="#D92231"/>
<path d="M334.421 2.0857C334.421 2.75313 334.71 2.91999 335.659 2.91999H336.898V6.88285C336.898 10.8457 336.898 10.8457 337.93 10.8457C338.962 10.8457 338.962 10.8457 338.962 6.88285V2.91999H340.201C341.151 2.91999 341.44 2.75313 341.44 2.0857C341.44 1.33485 341.151 1.25142 337.93 1.25142C334.71 1.25142 334.421 1.33485 334.421 2.0857Z" fill="black"/>
<path d="M342.265 6.04856V10.8457H343.298C344.288 10.8457 344.33 10.7623 344.371 7.59199V4.37999L345.321 7.50856C346.27 10.5954 346.311 10.6371 347.674 10.6371C349.036 10.6371 349.078 10.5954 349.945 7.50856L350.894 4.37999V7.59199C350.936 10.7623 350.977 10.8457 351.968 10.8457H353V6.04856V1.25142H351.39H349.821L348.83 4.58856C348.335 6.42399 347.756 7.9257 347.591 7.9257C347.426 7.9257 347.178 7.42513 347.013 6.7577C346.889 6.13199 346.477 4.63027 346.146 3.42056C345.527 1.29313 345.486 1.25142 343.876 1.25142H342.265V6.04856Z" fill="black"/>
</g>
<defs>
<clipPath id="clip0_430_975">
<rect width="353" height="73" fill="white"/>
</clipPath>
</defs>
</svg>
