<svg width="0" height="0" class="hidden">
  <symbol   xmlns="http://www.w3.org/2000/svg" viewBox="0 0 30 30" id="ic-monitor">
    <path d="M12.1875 21.25L11.25 25L10 26.25H20L18.75 25L17.8125 21.25M3.75 16.25H26.25M6.25 21.25H23.75C24.413 21.25 25.0489 20.9866 25.5178 20.5178C25.9866 20.0489 26.25 19.413 26.25 18.75V6.25C26.25 5.58696 25.9866 4.95107 25.5178 4.48223C25.0489 4.01339 24.413 3.75 23.75 3.75H6.25C5.58696 3.75 4.95107 4.01339 4.48223 4.48223C4.01339 4.95107 3.75 5.58696 3.75 6.25V18.75C3.75 19.413 4.01339 20.0489 4.48223 20.5178C4.95107 20.9866 5.58696 21.25 6.25 21.25Z"   stroke-width="1.5" stroke-linecap="round" stroke-linejoin="round"></path>
  </symbol>
  <symbol viewBox="0 0 24 24" id="ic-phone" xmlns="http://www.w3.org/2000/svg">
<path d="M0 1.5C0 1.10218 0.158035 0.720644 0.43934 0.43934C0.720644 0.158035 1.10218 0 1.5 0H4.7295C5.08456 0.000163454 5.42805 0.126271 5.69887 0.355889C5.96968 0.585508 6.15027 0.903748 6.2085 1.254L7.3185 7.9065C7.37154 8.22333 7.32146 8.54881 7.17564 8.83504C7.02983 9.12128 6.79597 9.35314 6.5085 9.4965L4.1865 10.656C5.01916 12.7195 6.25925 14.5939 7.83266 16.1673C9.40608 17.7407 11.2805 18.9808 13.344 19.8135L14.505 17.4915C14.6483 17.2043 14.8799 16.9706 15.1658 16.8248C15.4518 16.679 15.7769 16.6288 16.0935 16.6815L22.746 17.7915C23.0962 17.8497 23.4145 18.0303 23.6441 18.3011C23.8737 18.5719 23.9998 18.9154 24 19.2705V22.5C24 22.8978 23.842 23.2794 23.5607 23.5607C23.2794 23.842 22.8978 24 22.5 24H19.5C8.73 24 0 15.27 0 4.5V1.5Z" />
</symbol>

  <symbol viewBox="0 0 179 49" id="logo" xmlns="http://www.w3.org/2000/svg">
<path d="M7.078 5.95843H22.8904V0H7.078V5.95843ZM0.371094 32.8361H7.078V5.95886H0.371094V32.8361Z"  />
<path d="M43.5841 0.00138855L33.9212 31.3827V0.00138855H27.2129V32.8369H40.2068L49.8694 1.45587V32.8369H56.5774V0.00138855H43.5841Z"  />
<path d="M62.1152 0.00138855V32.8369H68.8233V5.95883H83.9743V0.00138855H62.1152Z"  />
<path d="M90.5419 0.00138855L79.4717 32.8369H86.2734L88.5718 25.7069H104.005L106.35 32.8369H113.527L102.457 0.00138855H90.5419ZM96.311 1.97199L102.082 19.7498H90.4952L96.311 1.97199Z"  />
<path d="M138.153 0.00138855V13.4642H122.955V0.00138855H116.247V32.8369H122.955V19.3748H138.153V32.8369H144.861V0.00138855H138.153Z"  />
<path d="M166.435 0H148.522V5.95829H159.691V32.8355H166.401C166.412 21.8904 166.424 10.9453 166.435 0ZM172.1 5.95829H178.371V0H172.1V5.95829ZM172.1 0V5.95829V0Z"  />
<path d="M2.05639 45.9386V40.35H0.635742V47.2012H6.33269V48.4444H7.65628V45.9386H6.65726V40.35H5.23647V45.9386H2.05639ZM15.2229 41.8262L15.273 40.0059L9.09597 45.7222L9.04609 47.5426L15.2229 41.8262ZM10.3974 40.35H9.04609V47.5426L10.3974 46.0857V40.35ZM15.273 40.0059L13.9215 41.5043V47.2012H15.273V40.0059ZM19.9315 40.35V47.2012H21.3523V40.35H19.9315ZM23.1726 43.7742C23.1726 44.1018 23.0921 44.3681 22.9284 44.5762C22.7647 44.7843 22.5372 44.9342 22.243 45.0257C21.9489 45.1174 21.602 45.1644 21.2052 45.1644H20.0897C19.6929 45.1644 19.346 45.1174 19.0519 45.0257C18.7577 44.9342 18.5302 44.7843 18.3665 44.5762C18.2028 44.3681 18.1222 44.1018 18.1222 43.7742C18.1222 43.4414 18.2028 43.1721 18.3665 42.9667C18.5302 42.7614 18.7577 42.6116 19.0519 42.5201C19.346 42.4284 19.6929 42.384 20.0897 42.384H21.2052C21.602 42.384 21.9489 42.4284 22.243 42.5201C22.5372 42.6116 22.7647 42.7614 22.9284 42.9667C23.0921 43.1721 23.1726 43.4414 23.1726 43.7742ZM24.5934 43.7742C24.5934 43.2193 24.4547 42.7448 24.1771 42.3535C23.8997 41.9623 23.5223 41.6625 23.0421 41.4489C22.5622 41.238 22.0211 41.1326 21.4217 41.1326H19.8733C19.274 41.1326 18.7355 41.238 18.2555 41.4489C17.7755 41.6625 17.3953 41.9623 17.1178 42.3535C16.8403 42.7448 16.7016 43.2193 16.7016 43.7742C16.7016 44.3237 16.8403 44.7955 17.1178 45.1894C17.3953 45.5835 17.7755 45.8859 18.2555 46.0996C18.7355 46.3132 19.274 46.4187 19.8733 46.4187H21.4217C22.0211 46.4187 22.5622 46.3132 23.0421 46.0996C23.5223 45.8859 23.8997 45.5835 24.1771 45.1894C24.4547 44.7955 24.5934 44.3237 24.5934 43.7742ZM26.0221 40.35V47.2012H27.4234V40.35H26.0221ZM26.8739 41.5322H28.2336C28.6055 41.5322 28.8996 41.6154 29.1161 41.7818C29.3297 41.9483 29.4379 42.1982 29.4379 42.531C29.4379 42.8586 29.3297 43.1054 29.1161 43.2748C28.8996 43.4439 28.6055 43.53 28.2336 43.53H26.8739V44.7149H28.2336C28.7747 44.7149 29.2381 44.6261 29.6211 44.4486C30.0013 44.2737 30.2954 44.0212 30.4979 43.6911C30.7006 43.3608 30.8005 42.9751 30.8005 42.531C30.8005 42.0815 30.7006 41.6932 30.4979 41.3656C30.2954 41.041 30.0013 40.7885 29.6211 40.6137C29.2381 40.4388 28.7747 40.35 28.2336 40.35H26.8739V41.5322ZM33.2669 43.7742C33.2669 43.3386 33.3584 42.9501 33.5416 42.6088C33.7219 42.2703 33.9744 42.0038 34.2936 41.8069C34.6128 41.6098 34.9845 41.5127 35.409 41.5127C35.8393 41.5127 36.2166 41.6098 36.5358 41.8069C36.8548 42.0038 37.1045 42.2703 37.2794 42.6088C37.4542 42.9501 37.543 43.3386 37.543 43.7742C37.543 44.2127 37.4542 44.6011 37.2739 44.9396C37.0936 45.2811 36.8466 45.5474 36.5274 45.7417C36.2082 45.9386 35.8336 46.0358 35.409 46.0358C34.9845 46.0358 34.6128 45.9386 34.2936 45.7417C33.9744 45.5474 33.7219 45.2811 33.5416 44.9396C33.3584 44.6011 33.2669 44.2127 33.2669 43.7742ZM31.7878 43.7742C31.7878 44.2905 31.8766 44.7677 32.0543 45.2089C32.2291 45.6502 32.4816 46.0331 32.8063 46.3577C33.1309 46.6851 33.5167 46.9376 33.9578 47.1181C34.3991 47.2985 34.8819 47.3873 35.409 47.3873C35.9391 47.3873 36.422 47.2985 36.8632 47.1181C37.3043 46.9376 37.6846 46.6851 38.0092 46.3577C38.3339 46.0331 38.5836 45.6502 38.764 45.2089C38.9444 44.7677 39.0332 44.2905 39.0332 43.7742C39.0332 43.2525 38.9444 42.7753 38.764 42.3396C38.5836 41.9068 38.331 41.5293 38.0009 41.2101C37.6707 40.8911 37.285 40.6441 36.8494 40.4693C36.4137 40.2972 35.9335 40.2113 35.409 40.2113C34.8957 40.2113 34.4184 40.2972 33.9773 40.4693C33.536 40.6441 33.1504 40.8911 32.8256 41.2101C32.5011 41.5293 32.2457 41.9068 32.0625 42.3396C31.8793 42.7753 31.7878 43.2525 31.7878 43.7742ZM41.4608 43.7272H42.6927C43.1506 43.7272 43.5502 43.6632 43.8971 43.5356C44.244 43.408 44.5131 43.2193 44.7101 42.9723C44.9071 42.7253 45.0043 42.4284 45.0043 42.0815C45.0043 41.6903 44.9071 41.3656 44.7101 41.1104C44.5131 40.8579 44.244 40.6664 43.8971 40.5387C43.5502 40.4139 43.1506 40.35 42.6927 40.35H40.4118V47.2012H42.8398C43.3477 47.2012 43.7944 47.1319 44.1802 46.9959C44.5659 46.8599 44.8627 46.6463 45.0764 46.3577C45.29 46.0719 45.3955 45.7029 45.3955 45.2533C45.3955 44.9148 45.3261 44.6234 45.1846 44.382C45.0432 44.1405 44.8543 43.9407 44.613 43.7881C44.3716 43.6355 44.0969 43.5245 43.7943 43.4523C43.4919 43.3803 43.1729 43.3442 42.8398 43.3442H41.4608V44.1073H42.7122C42.887 44.1073 43.0507 44.1239 43.2033 44.16C43.3532 44.1961 43.4864 44.2571 43.6002 44.3376C43.7139 44.4179 43.8 44.5207 43.8637 44.6401C43.9248 44.7621 43.9554 44.9064 43.9554 45.0758C43.9554 45.3117 43.9026 45.5031 43.7943 45.6528C43.6862 45.8055 43.5391 45.9136 43.3504 45.9831C43.1588 46.0525 42.9481 46.0857 42.7122 46.0857H41.8131V41.4655H42.5651C42.8731 41.4655 43.1145 41.5349 43.295 41.6709C43.4753 41.8068 43.5641 42.0067 43.5641 42.2676C43.5641 42.4367 43.5225 42.5838 43.4421 42.7087C43.3615 42.8336 43.245 42.9279 43.0952 42.9917C42.9453 43.0556 42.7676 43.0888 42.5651 43.0888H41.4608V43.7272ZM47.97 43.7742C47.97 43.3386 48.0617 42.9501 48.2449 42.6088C48.4252 42.2703 48.6777 42.0038 48.9968 41.8069C49.3159 41.6098 49.6878 41.5127 50.1123 41.5127C50.5425 41.5127 50.9199 41.6098 51.2389 41.8069C51.5581 42.0038 51.8078 42.2703 51.9827 42.6088C52.1575 42.9501 52.2463 43.3386 52.2463 43.7742C52.2463 44.2127 52.1575 44.6011 51.977 44.9396C51.7967 45.2811 51.5499 45.5474 51.2306 45.7417C50.9115 45.9386 50.5369 46.0358 50.1123 46.0358C49.6878 46.0358 49.3159 45.9386 48.9968 45.7417C48.6777 45.5474 48.4252 45.2811 48.2449 44.9396C48.0617 44.6011 47.97 44.2127 47.97 43.7742ZM46.4911 43.7742C46.4911 44.2905 46.5799 44.7677 46.7576 45.2089C46.9324 45.6502 47.1849 46.0331 47.5095 46.3577C47.8342 46.6851 48.2199 46.9376 48.6611 47.1181C49.1023 47.2985 49.5851 47.3873 50.1123 47.3873C50.6424 47.3873 51.1253 47.2985 51.5665 47.1181C52.0076 46.9376 52.3877 46.6851 52.7124 46.3577C53.0372 46.0331 53.2868 45.6502 53.4672 45.2089C53.6475 44.7677 53.7363 44.2905 53.7363 43.7742C53.7363 43.2525 53.6475 42.7753 53.4672 42.3396C53.2868 41.9068 53.0343 41.5293 52.7042 41.2101C52.3739 40.8911 51.9881 40.6441 51.5526 40.4693C51.1169 40.2972 50.6368 40.2113 50.1123 40.2113C49.599 40.2113 49.1217 40.2972 48.6806 40.4693C48.2392 40.6441 47.8537 40.8911 47.5289 41.2101C47.2042 41.5293 46.949 41.9068 46.7658 42.3396C46.5826 42.7753 46.4911 43.2525 46.4911 43.7742ZM61.292 41.8262L61.3419 40.0059L55.1649 45.7222L55.1151 47.5426L61.292 41.8262ZM56.4664 40.35H55.1151V47.5426L56.4664 46.0857V40.35ZM61.3419 40.0059L59.9905 41.5043V47.2012H61.3419V40.0059ZM56.8881 38.2549C56.8881 38.5074 56.9492 38.7433 57.0685 38.9569C57.1878 39.1735 57.3683 39.3456 57.6068 39.476C57.8455 39.6063 58.1341 39.673 58.4726 39.673C58.8195 39.673 59.1081 39.6063 59.344 39.476C59.5798 39.3456 59.7574 39.1735 59.8823 38.9569C60.0071 38.7433 60.0682 38.5074 60.0682 38.2549H59.1775C59.1775 38.3576 59.1526 38.4604 59.1053 38.5574C59.0554 38.6545 58.9777 38.7351 58.8751 38.796C58.7696 38.86 58.6363 38.8904 58.4726 38.8904C58.3145 38.8904 58.184 38.86 58.0814 38.796C57.9788 38.7351 57.9011 38.6545 57.8484 38.5574C57.7956 38.4604 57.7679 38.3576 57.7679 38.2549H56.8881ZM72.5295 41.8262L72.5794 40.0059L66.4024 45.7222L66.3525 47.5426L72.5295 41.8262ZM67.7039 40.35H66.3525V47.5426L67.7039 46.0857V40.35ZM72.5794 40.0059L71.2279 41.5043V47.2012H72.5794V40.0059ZM74.821 44.1849H79.852V42.9223H74.821V44.1849ZM78.9611 40.35V47.2012H80.3626V40.35H78.9611ZM74.3604 40.35V47.2012H75.7617V40.35H74.3604ZM81.447 41.6126H83.2869V47.2012H84.6882V41.6126H86.539V40.35H81.447V41.6126ZM88.5254 47.2012H91.9801V46.0164H88.5254V47.2012ZM88.5254 41.5322H91.9801V40.35H88.5254V41.5322ZM88.5254 44.1461H91.7832V42.9834H88.5254V44.1461ZM87.6236 40.35V47.2012H88.975V40.35H87.6236ZM93.6918 40.35V47.2012H95.0932V41.6126H97.5491V40.35H93.6918ZM98.6835 40.35V47.2012H100.085V40.35H98.6835ZM99.5353 41.5322H100.895C101.267 41.5322 101.561 41.6154 101.777 41.7818C101.991 41.9483 102.099 42.1982 102.099 42.531C102.099 42.8586 101.991 43.1054 101.777 43.2748C101.561 43.4439 101.267 43.53 100.895 43.53H99.5353V44.7149H100.895C101.436 44.7149 101.9 44.6261 102.283 44.4486C102.663 44.2737 102.957 44.0212 103.159 43.6911C103.362 43.3608 103.462 42.9751 103.462 42.531C103.462 42.0815 103.362 41.6932 103.159 41.3656C102.957 41.041 102.663 40.7885 102.283 40.6137C101.9 40.4388 101.436 40.35 100.895 40.35H99.5353V41.5322ZM105.104 45.6445H108.728L108.562 44.5375H105.271L105.104 45.6445ZM106.897 42.57L107.924 44.9508L107.904 45.3033L108.787 47.2012H110.371L106.897 39.9477L103.423 47.2012H104.999L105.898 45.2422L105.867 44.9314L106.897 42.57ZM110.038 41.6126H111.878V47.2012H113.279V41.6126H115.13V40.35H110.038V41.6126ZM116.813 43.7742C116.813 43.3386 116.904 42.9501 117.087 42.6088C117.268 42.2703 117.52 42.0038 117.839 41.8069C118.159 41.6098 118.53 41.5127 118.955 41.5127C119.385 41.5127 119.762 41.6098 120.082 41.8069C120.401 42.0038 120.65 42.2703 120.825 42.6088C121 42.9501 121.089 43.3386 121.089 43.7742C121.089 44.2127 121 44.6011 120.82 44.9396C120.639 45.2811 120.392 45.5474 120.073 45.7417C119.754 45.9386 119.379 46.0358 118.955 46.0358C118.53 46.0358 118.159 45.9386 117.839 45.7417C117.52 45.5474 117.268 45.2811 117.087 44.9396C116.904 44.6011 116.813 44.2127 116.813 43.7742ZM115.334 43.7742C115.334 44.2905 115.422 44.7677 115.6 45.2089C115.775 45.6502 116.027 46.0331 116.352 46.3577C116.677 46.6851 117.063 46.9376 117.504 47.1181C117.945 47.2985 118.428 47.3873 118.955 47.3873C119.485 47.3873 119.968 47.2985 120.409 47.1181C120.85 46.9376 121.23 46.6851 121.555 46.3577C121.88 46.0331 122.129 45.6502 122.31 45.2089C122.49 44.7677 122.579 44.2905 122.579 43.7742C122.579 43.2525 122.49 42.7753 122.31 42.3396C122.129 41.9068 121.877 41.5293 121.547 41.2101C121.216 40.8911 120.831 40.6441 120.395 40.4693C119.96 40.2972 119.479 40.2113 118.955 40.2113C118.442 40.2113 117.964 40.2972 117.523 40.4693C117.082 40.6441 116.696 40.8911 116.371 41.2101C116.047 41.5293 115.792 41.9068 115.608 42.3396C115.425 42.7753 115.334 43.2525 115.334 43.7742ZM123.958 40.35V47.2012H125.359V40.35H123.958ZM124.809 41.5322H126.169C126.541 41.5322 126.835 41.6154 127.052 41.7818C127.265 41.9483 127.374 42.1982 127.374 42.531C127.374 42.8586 127.265 43.1054 127.052 43.2748C126.835 43.4439 126.541 43.53 126.169 43.53H124.809V44.7149H126.169C126.71 44.7149 127.174 44.6261 127.557 44.4486C127.937 44.2737 128.231 44.0212 128.434 43.6911C128.636 43.3608 128.736 42.9751 128.736 42.531C128.736 42.0815 128.636 41.6932 128.434 41.3656C128.231 41.041 127.937 40.7885 127.557 40.6137C127.174 40.4388 126.71 40.35 126.169 40.35H124.809V41.5322Z"  />
</symbol>

  <symbol   xmlns="http://www.w3.org/2000/svg" viewBox="0 0 30 30" id="ic-pause">
    <path d="M12.5 11.25V18.75M17.5 11.25V18.75M26.25 15C26.25 16.4774 25.959 17.9403 25.3936 19.3052C24.8283 20.6701 23.9996 21.9103 22.955 22.955C21.9103 23.9996 20.6701 24.8283 19.3052 25.3936C17.9403 25.959 16.4774 26.25 15 26.25C13.5226 26.25 12.0597 25.959 10.6948 25.3936C9.3299 24.8283 8.08971 23.9996 7.04505 22.955C6.00039 21.9103 5.17172 20.6701 4.60636 19.3052C4.04099 17.9403 3.75 16.4774 3.75 15C3.75 12.0163 4.93526 9.15483 7.04505 7.04505C9.15483 4.93526 12.0163 3.75 15 3.75C17.9837 3.75 20.8452 4.93526 22.955 7.04505C25.0647 9.15483 26.25 12.0163 26.25 15Z"   stroke-width="2" stroke-linecap="round" stroke-linejoin="round"></path>
  </symbol>
  <symbol   xmlns="http://www.w3.org/2000/svg" viewBox="0 0 30 31" id="ic-portfel">
    <path d="M29 18.9272C24.5519 20.6694 19.798 21.5622 15 21.5565C10.0487 21.5565 5.32444 20.6223 1 18.9272M21.2222 7.99575V4.98225C21.2222 4.18302 20.8944 3.41652 20.311 2.85138C19.7276 2.28624 18.9362 1.96875 18.1111 1.96875H11.8889C11.0638 1.96875 10.2724 2.28624 9.689 2.85138C9.10556 3.41652 8.77778 4.18302 8.77778 4.98225V7.99575M15 17.0362H15.0156M4.11111 29.0902H25.8889C26.714 29.0902 27.5053 28.7727 28.0888 28.2076C28.6722 27.6425 29 26.876 29 26.0767V11.0092C29 10.21 28.6722 9.44352 28.0888 8.87838C27.5053 8.31324 26.714 7.99575 25.8889 7.99575H4.11111C3.28599 7.99575 2.49467 8.31324 1.91122 8.87838C1.32778 9.44352 1 10.21 1 11.0092V26.0767C1 26.876 1.32778 27.6425 1.91122 28.2076C2.49467 28.7727 3.28599 29.0902 4.11111 29.0902Z" stroke="white" stroke-width="2" stroke-linecap="round" stroke-linejoin="round"></path>
  </symbol>
  <symbol   xmlns="http://www.w3.org/2000/svg" viewBox="0 0 24 28" id="ic-raiting">
    <path d="M1.71094 15.2213V22.1026M14.972 8.79877V22.1026M8.34149 5.58751V22.1026M21.6026 1V22.1026"   stroke-width="2" stroke-linecap="round" stroke-linejoin="round"></path>
    <path d="M22.3125 26.2313H1"   stroke-width="2" stroke-linecap="round"></path>
  </symbol>
  <symbol   xmlns="http://www.w3.org/2000/svg" viewBox="0 0 18 11" id="arr-right">
    <path fill-rule="evenodd" clip-rule="evenodd" d="M11.9686 10.7697C12.1154 10.9172 12.3144 11 12.5219 11C12.7294 11 12.9284 10.9172 13.0752 10.7697L17.7709 6.05125C17.9176 5.90377 18 5.70378 18 5.49525C18 5.28672 17.9176 5.08673 17.7709 4.93926L13.0752 0.220756C12.9276 0.0775043 12.7299 -0.00176206 12.5247 2.97286e-05C12.3195 0.00182152 12.1232 0.0845281 11.9781 0.230336C11.833 0.376144 11.7507 0.573387 11.7489 0.779583C11.7472 0.985779 11.826 1.18443 11.9686 1.33275L15.3283 4.70884H0.782608C0.575048 4.70884 0.375988 4.79169 0.229219 4.93917C0.0824528 5.08665 0 5.28668 0 5.49525C0 5.70382 0.0824528 5.90385 0.229219 6.05133C0.375988 6.19881 0.575048 6.28167 0.782608 6.28167H15.3283L11.9686 9.65775C11.8219 9.80523 11.7395 10.0052 11.7395 10.2138C11.7395 10.4223 11.8219 10.6223 11.9686 10.7697Z" ></path>
  </symbol>
  <symbol   xmlns="http://www.w3.org/2000/svg" viewBox="0 0 32 32" id="ic-cart">
    <g clip-path="url(#clip0_173_237)">
      <path d="M4 4H6.66667L7.2 6.66667M9.33333 17.3333H22.6667L28 6.66667H7.2M9.33333 17.3333L7.2 6.66667M9.33333 17.3333L6.276 20.3907C5.436 21.2307 6.03067 22.6667 7.21867 22.6667H22.6667M22.6667 22.6667C21.9594 22.6667 21.2811 22.9476 20.7811 23.4477C20.281 23.9478 20 24.6261 20 25.3333C20 26.0406 20.281 26.7189 20.7811 27.219C21.2811 27.719 21.9594 28 22.6667 28C23.3739 28 24.0522 27.719 24.5523 27.219C25.0524 26.7189 25.3333 26.0406 25.3333 25.3333C25.3333 24.6261 25.0524 23.9478 24.5523 23.4477C24.0522 22.9476 23.3739 22.6667 22.6667 22.6667ZM-6.66667 6.66667C-6.66667 7.37391 -6.94762 8.05219 -7.44771 8.55229C-7.94781 9.05238 -8.62609 9.33333 -9.33333 9.33333C-10.0406 9.33333 -10.7189 9.05238 -11.219 8.55229C-11.719 8.05219 -12 7.37391 -12 6.66667C-12 5.95942 -11.719 5.28115 -11.219 4.78105C-10.7189 4.28095 -10.0406 4 -9.33333 4C-8.62609 4 -7.94781 4.28095 -7.44771 4.78105C-6.94762 5.28115 -6.66667 5.95942 -6.66667 6.66667V6.66667Z"   stroke-width="2" stroke-linecap="round" stroke-linejoin="round"></path>
    </g>
    <defs>
      <clipPath id="clip0_173_237">
        <rect width="32" height="32"  ></rect>
      </clipPath>
    </defs>
  </symbol>
  <symbol   xmlns="http://www.w3.org/2000/svg" viewBox="0 0 31 30" id="ic-gosdumma">
    <path d="M9.05556 17.5742V22.0945M15.5 17.5742V22.0945M21.9444 17.5742V22.0945M1 28.1215H30M1 11.5472H30M1 7.027L15.5 1L30 7.027M2.61111 11.5472H28.3889V28.1215H2.61111V11.5472Z" stroke="white" stroke-width="2" stroke-linecap="round" stroke-linejoin="round"></path>
  </symbol>
  <symbol   xmlns="http://www.w3.org/2000/svg" viewBox="0 0 24 24" id="ic-heart">
    <path d="M4.31804 6.31804C3.90017 6.7359 3.5687 7.23198 3.34255 7.77795C3.1164 8.32392 3 8.90909 3 9.50004C3 10.091 3.1164 10.6762 3.34255 11.2221C3.5687 11.7681 3.90017 12.2642 4.31804 12.682L12 20.364L19.682 12.682C20.526 11.8381 21.0001 10.6935 21.0001 9.50004C21.0001 8.30656 20.526 7.16196 19.682 6.31804C18.8381 5.47412 17.6935 5.00001 16.5 5.00001C15.3066 5.00001 14.162 5.47412 13.318 6.31804L12 7.63604L10.682 6.31804C10.2642 5.90017 9.7681 5.5687 9.22213 5.34255C8.67616 5.1164 8.09099 5 7.50004 5C6.90909 5 6.32392 5.1164 5.77795 5.34255C5.23198 5.5687 4.7359 5.90017 4.31804 6.31804V6.31804Z"   stroke-width="2" stroke-linecap="round" stroke-linejoin="round"></path>
  </symbol>
  <symbol   xmlns="http://www.w3.org/2000/svg" viewBox="0 0 25 33" id="ic-mic">
    <path d="M24 14.9482C24 17.8254 22.7884 20.5848 20.6317 22.6193C18.4751 24.6538 15.55 25.7968 12.5 25.7968M12.5 25.7968C9.45001 25.7968 6.52494 24.6538 4.36827 22.6193C2.2116 20.5848 1 17.8254 1 14.9482M12.5 25.7968V31.996M12.5 31.996H5.92857M12.5 31.996H19.0714M12.5 19.5976C11.1929 19.5976 9.93926 19.1077 9.01497 18.2358C8.09069 17.3639 7.57143 16.1813 7.57143 14.9482V5.6494C7.57143 4.4163 8.09069 3.23371 9.01497 2.36178C9.93926 1.48985 11.1929 1 12.5 1C13.8071 1 15.0607 1.48985 15.985 2.36178C16.9093 3.23371 17.4286 4.4163 17.4286 5.6494V14.9482C17.4286 16.1813 16.9093 17.3639 15.985 18.2358C15.0607 19.1077 13.8071 19.5976 12.5 19.5976V19.5976Z" stroke="white" stroke-width="2" stroke-linecap="round" stroke-linejoin="round"></path>
  </symbol>
  <symbol viewBox="0 0 10 16" id="arrow-left" xmlns="http://www.w3.org/2000/svg">
    <path  d="M9 1L2 8L9 15" stroke-width="2"/>
  </symbol>
  <symbol viewBox="0 0 10 16" id="arrow-right" xmlns="http://www.w3.org/2000/svg">
    <path  d="M1 1L8 8L1 15" stroke-width="2"/>
  </symbol>

</svg>