<svg width="20" height="21" viewBox="0 0 20 21" xmlns="http://www.w3.org/2000/svg">
<g clip-path="url(#clip0_143_1465)">
<path fill-rule="evenodd" clip-rule="evenodd" d="M10 19.0938C12.3206 19.0938 14.5462 18.1719 16.1872 16.5309C17.8281 14.89 18.75 12.6644 18.75 10.3438C18.75 8.02311 17.8281 5.79751 16.1872 4.15657C14.5462 2.51562 12.3206 1.59375 10 1.59375C7.67936 1.59375 5.45376 2.51562 3.81282 4.15657C2.17187 5.79751 1.25 8.02311 1.25 10.3438C1.25 12.6644 2.17187 14.89 3.81282 16.5309C5.45376 18.1719 7.67936 19.0937 10 19.0938V19.0938ZM10 20.3438C12.6522 20.3437 15.1957 19.2902 17.0711 17.4148C18.9464 15.5395 20 12.9959 20 10.3438C20 7.69159 18.9464 5.14805 17.0711 3.27268C15.1957 1.39732 12.6522 0.34375 10 0.34375C7.34784 0.34375 4.8043 1.39732 2.92893 3.27268C1.05357 5.14805 0 7.69159 0 10.3438C0 12.9959 1.05357 15.5395 2.92893 17.4148C4.8043 19.2902 7.34784 20.3437 10 20.3438V20.3438Z" fill="#3949AB"/>
<path fill-rule="evenodd" clip-rule="evenodd" d="M10 5.34375C10.1658 5.34375 10.3247 5.4096 10.4419 5.52681C10.5592 5.64402 10.625 5.80299 10.625 5.96875V9.71875H14.375C14.5408 9.71875 14.6997 9.7846 14.8169 9.90181C14.9342 10.019 15 10.178 15 10.3438C15 10.5095 14.9342 10.6685 14.8169 10.7857C14.6997 10.9029 14.5408 10.9688 14.375 10.9688H10.625V14.7188C10.625 14.8845 10.5592 15.0435 10.4419 15.1607C10.3247 15.2779 10.1658 15.3438 10 15.3438C9.83424 15.3438 9.67527 15.2779 9.55806 15.1607C9.44085 15.0435 9.375 14.8845 9.375 14.7188V10.9688H5.625C5.45924 10.9688 5.30027 10.9029 5.18306 10.7857C5.06585 10.6685 5 10.5095 5 10.3438C5 10.178 5.06585 10.019 5.18306 9.90181C5.30027 9.7846 5.45924 9.71875 5.625 9.71875H9.375V5.96875C9.375 5.80299 9.44085 5.64402 9.55806 5.52681C9.67527 5.4096 9.83424 5.34375 10 5.34375V5.34375Z" fill="#3949AB"/>
</g>
<defs>
<clipPath id="clip0_143_1465">
<rect width="20" height="20" fill="white" transform="translate(0 0.34375)"/>
</clipPath>
</defs>
</svg>
